<?xml version="1.0" encoding="utf-8"?>
<!-- Generator: Adobe Illustrator 24.1.0, SVG Export Plug-In . SVG Version: 6.00 Build 0)  -->
<svg version="1.1" id="Layer_1" xmlns="http://www.w3.org/2000/svg" xmlns:xlink="http://www.w3.org/1999/xlink" x="0px" y="0px"
	 viewBox="0 0 1200 600" style="enable-background:new 0 0 1200 600;" xml:space="preserve">
<style type="text/css">
	.st0{fill:url(#SVGID_1_);}
	.st1{fill:#00C596;}
	.st2{fill:#FFFFFF;}
	.st3{fill:url(#SVGID_8_);}
	.st4{fill:#8C45AB;}
	.st5{clip-path:url(#SVGID_20_);fill:#FFFFFF;}
	.st6{clip-path:url(#SVGID_20_);fill:#00C596;}
	.st7{clip-path:url(#SVGID_22_);fill:#00C596;}
	.st8{clip-path:url(#SVGID_22_);fill:#FFFFFF;}
	.st9{fill:#E5E5E5;}
	.st10{enable-background:new    ;}
	.st11{clip-path:url(#SVGID_24_);fill:#FFFFFF;}
	.st12{filter:url(#Adobe_OpacityMaskFilter);}
	.st13{clip-path:url(#SVGID_24_);}
	.st14{clip-path:url(#SVGID_27_);fill:url(#SVGID_28_);}
	.st15{clip-path:url(#SVGID_24_);mask:url(#SVGID_25_);fill:url(#SVGID_29_);}
	.st16{clip-path:url(#SVGID_24_);fill:#8B44AC;}
	.st17{clip-path:url(#SVGID_24_);fill:#5D2F75;}
	.st18{fill:url(#SVGID_30_);}
	.st19{fill:url(#SVGID_31_);}
	.st20{fill:#333333;}
	.st21{fill:url(#SVGID_32_);}
	.st22{fill:url(#SVGID_33_);}
	.st23{fill:url(#SVGID_34_);}
</style>
<linearGradient id="SVGID_1_" gradientUnits="userSpaceOnUse" x1="335.8843" y1="547.1655" x2="335.9785" y2="547.1655">
	<stop  offset="0" style="stop-color:#F2F2F2"/>
	<stop  offset="1" style="stop-color:#B3B3B3"/>
</linearGradient>
<polyline class="st0" points="335.88,547.13 335.88,547.2 335.98,547.2 "/>
<g>
	<defs>
		<path id="SVGID_2_" d="M1022.09,126.84c-2.33,0-4.22,1.89-4.22,4.22v81.38c0,2.33,1.89,4.22,4.22,4.22h81.28
			c2.33,0,4.22-1.89,4.22-4.22v-81.38c0-2.33-1.89-4.22-4.22-4.22H1022.09z"/>
	</defs>
	<linearGradient id="SVGID_3_" gradientUnits="userSpaceOnUse" x1="1017.878" y1="171.74" x2="1107.5909" y2="171.74">
		<stop  offset="0" style="stop-color:#F2F2F2"/>
		<stop  offset="1" style="stop-color:#E0E0E0"/>
	</linearGradient>
	<use xlink:href="#SVGID_2_"  style="overflow:visible;fill:url(#SVGID_3_);"/>
	<clipPath id="SVGID_4_">
		<use xlink:href="#SVGID_2_"  style="overflow:visible;"/>
	</clipPath>
</g>
<g>
	<defs>
		<path id="SVGID_5_" d="M1001.26,198.11c-2.33,0-4.22,1.89-4.22,4.22v47.82c0,2.33,1.89,4.22,4.22,4.22h47.76
			c2.33,0,4.22-1.89,4.22-4.22v-47.82c0-2.33-1.89-4.22-4.22-4.22H1001.26z"/>
	</defs>
	<linearGradient id="SVGID_6_" gradientUnits="userSpaceOnUse" x1="997.039" y1="226.2415" x2="1053.234" y2="226.2415">
		<stop  offset="0" style="stop-color:#F2F2F2"/>
		<stop  offset="1" style="stop-color:#E0E0E0"/>
	</linearGradient>
	<use xlink:href="#SVGID_5_"  style="overflow:visible;fill:url(#SVGID_6_);"/>
	<clipPath id="SVGID_7_">
		<use xlink:href="#SVGID_5_"  style="overflow:visible;"/>
	</clipPath>
</g>
<g>
	<path class="st1" d="M201.66,168.1c-2.6-6.18-6.41-11.98-11.44-17.02c-20.81-20.81-54.56-20.81-75.37,0
		c-20.81,20.81-20.81,54.56,0,75.37c8.05,8.05,18.04,12.97,28.47,14.8C157.29,212.86,177.3,187.92,201.66,168.1z"/>
	<path class="st2" d="M322.27,226.1c-6.04,0-10.95,4.91-10.95,10.95v299.62c0,6.04,4.91,10.95,10.95,10.95h154.35
		c6.04,0,10.95-4.91,10.95-10.95V237.05c0-6.04-4.91-10.95-10.95-10.95H322.27z"/>
	<g>
		<linearGradient id="SVGID_8_" gradientUnits="userSpaceOnUse" x1="258.0077" y1="712.0455" x2="810.6909" y2="507.5328">
			<stop  offset="0" style="stop-color:#F2F2F2"/>
			<stop  offset="1" style="stop-color:#B3B3B3"/>
		</linearGradient>
		<path class="st3" d="M785.48,480.9v24.07c0.01,0.16,0.02,0.32,0.02,0.48c0.11,15.98,9.29,29.88,22.61,36.82
			c39.61-8.63,75.95-28.49,105.02-57.92c1.12-1.14,2.23-2.28,3.32-3.44H785.48z"/>
	</g>
</g>
<g>
	<defs>
		<path id="SVGID_9_" d="M436.25,410.55v51.27c0,6.4,5.19,11.58,11.58,11.58h521.18c6.4,0,11.58-5.19,11.58-11.58v-51.27H436.25z"/>
	</defs>
	<clipPath id="SVGID_10_">
		<use xlink:href="#SVGID_9_"  style="overflow:visible;"/>
	</clipPath>
</g>
<g>
	<defs>
		<polyline id="SVGID_11_" points="460.97,385.08 955.87,385.08 955.87,112.91 460.97,112.91 		"/>
	</defs>
	<clipPath id="SVGID_12_">
		<use xlink:href="#SVGID_11_"  style="overflow:visible;"/>
	</clipPath>
</g>
<g>
	<defs>
		<path id="SVGID_13_" d="M528.56,197.88c-26.35,26.35-26.35,69.07,0,95.41c26.35,26.35,69.07,26.35,95.41,0
			c26.35-26.35,26.35-69.07,0-95.41c-13.17-13.17-30.44-19.76-47.71-19.76C559,178.11,541.73,184.7,528.56,197.88"/>
	</defs>
	<linearGradient id="SVGID_14_" gradientUnits="userSpaceOnUse" x1="508.7986" y1="245.5814" x2="643.7322" y2="245.5814">
		<stop  offset="0" style="stop-color:#8C45AB"/>
		<stop  offset="1" style="stop-color:#613078"/>
	</linearGradient>
	<use xlink:href="#SVGID_13_"  style="overflow:visible;fill:url(#SVGID_14_);"/>
	<clipPath id="SVGID_15_">
		<use xlink:href="#SVGID_13_"  style="overflow:visible;"/>
	</clipPath>
</g>
<g>
	<defs>
		<path id="SVGID_16_" d="M436.25,410.55v51.27c0,6.4,5.19,11.58,11.58,11.58h521.18c6.4,0,11.58-5.19,11.58-11.58v-51.27H436.25z"
			/>
	</defs>
	<linearGradient id="SVGID_17_" gradientUnits="userSpaceOnUse" x1="436.248" y1="441.971" x2="980.594" y2="441.971">
		<stop  offset="0" style="stop-color:#F2F2F2"/>
		<stop  offset="0.5457" style="stop-color:#F0F0F0"/>
		<stop  offset="0.849" style="stop-color:#E8E8E8"/>
		<stop  offset="1" style="stop-color:#E0E0E0"/>
	</linearGradient>
	<use xlink:href="#SVGID_16_"  style="overflow:visible;fill:url(#SVGID_17_);"/>
	<clipPath id="SVGID_18_">
		<use xlink:href="#SVGID_16_"  style="overflow:visible;"/>
	</clipPath>
</g>
<g>
	<path class="st2" d="M128.41,310.72c-6.96,0-13.92,2.65-19.22,7.95c-5.13,5.13-7.96,11.96-7.96,19.22c0,7.26,2.83,14.08,7.96,19.22
		h0c5.13,5.13,11.96,7.96,19.22,7.96s14.08-2.83,19.22-7.96c10.6-10.6,10.6-27.84,0-38.43
		C142.33,313.37,135.37,310.72,128.41,310.72z"/>
	<path class="st1" d="M387.92,530.57c6.23,6.23,16.33,6.23,22.56,0c6.23-6.23,6.23-16.33,0-22.56c-6.23-6.23-16.33-6.23-22.56,0
		C381.69,514.24,381.69,524.34,387.92,530.57"/>
</g>
<rect x="333.47" y="270.65" class="st4" width="140.4" height="202.55"/>
<g>
	<defs>
		<rect id="SVGID_19_" x="333.47" y="270.65" width="140.4" height="202.55"/>
	</defs>
	<clipPath id="SVGID_20_">
		<use xlink:href="#SVGID_19_"  style="overflow:visible;"/>
	</clipPath>
	<path class="st5" d="M423.69,389.25v0.8l3.42,1.32l-3.42,1.32v0.8l4.31-1.7v-0.83L423.69,389.25z M419.54,393.99
		c-0.98,0-1.72-0.71-1.72-1.8c0-1.09,0.74-1.79,1.72-1.79c0.97,0,1.71,0.7,1.71,1.79C421.26,393.27,420.52,393.99,419.54,393.99
		 M421.25,387.6v2.81c-0.42-0.55-1.06-0.82-1.78-0.82c-1.49,0-2.58,1.04-2.58,2.6c0,1.56,1.09,2.61,2.58,2.61
		c0.75,0,1.41-0.29,1.82-0.86v0.81h0.88v-7.14H421.25z M414.67,394.74h0.92v-5.1h-0.92V394.74z M415.14,388.65
		c0.36,0,0.62-0.27,0.62-0.62c0-0.33-0.27-0.59-0.62-0.59c-0.36,0-0.62,0.27-0.62,0.61C414.51,388.4,414.78,388.65,415.14,388.65
		 M411.68,390.49v-0.85h-0.88v5.1h0.92v-2.54c0-1.12,0.62-1.72,1.61-1.72c0.07,0,0.14,0,0.21,0.01v-0.89
		C412.64,389.59,412.01,389.9,411.68,390.49 M408.17,393.53c-0.48,0.31-1.01,0.43-1.58,0.43c-1.55,0-2.68-1.11-2.68-2.59
		c0-1.5,1.13-2.59,2.69-2.59c0.76,0,1.4,0.24,1.95,0.78l0.6-0.6c-0.61-0.68-1.52-1.04-2.59-1.04c-2.09,0-3.61,1.45-3.61,3.45
		c0,1.99,1.52,3.44,3.59,3.44c0.94,0,1.88-0.29,2.55-0.86v-2.63h-0.92V393.53z M401.84,389.25l-4.31,1.7v0.83l4.31,1.7v-0.8
		l-3.42-1.32l3.42-1.32V389.25z"/>
	<path class="st6" d="M346.72,393.96c-1.06,0-1.79-0.87-1.79-2.59c0-1.72,0.73-2.59,1.79-2.59c1.05,0,1.78,0.87,1.78,2.59
		C348.5,393.09,347.77,393.96,346.72,393.96 M346.72,394.81c1.57,0,2.74-1.25,2.74-3.44c0-2.2-1.17-3.45-2.74-3.45
		c-1.58,0-2.75,1.25-2.75,3.45C343.97,393.56,345.15,394.81,346.72,394.81 M340.03,388v0.84h1.52v5.9h0.95V388H340.03z"/>
	<path class="st5" d="M485.04,377.7v0.8l3.42,1.32l-3.42,1.32v0.8l4.31-1.7v-0.83L485.04,377.7z M481.47,378.82
		c0.9,0,1.54,0.61,1.64,1.46h-3.27C479.93,379.42,480.59,378.82,481.47,378.82 M483.99,380.67c0-1.57-1.05-2.63-2.52-2.63
		s-2.56,1.09-2.56,2.6c0,1.52,1.1,2.61,2.74,2.61c0.85,0,1.55-0.29,2.01-0.83l-0.51-0.6c-0.38,0.41-0.88,0.62-1.47,0.62
		c-1.01,0-1.73-0.6-1.85-1.49h4.14C483.98,380.86,483.99,380.74,483.99,380.67 M478.15,382.23c-0.19,0.15-0.45,0.24-0.72,0.24
		c-0.51,0-0.8-0.31-0.8-0.86v-2.76h1.46v-0.76h-1.46v-1.12h-0.92v1.12h-0.87v0.76h0.87v2.8c0,1.03,0.59,1.6,1.62,1.6
		c0.41,0,0.84-0.12,1.12-0.36L478.15,382.23z M471.46,382.54c-0.7,0-1.13-0.32-1.13-0.83c0-0.43,0.26-0.79,1.17-0.79h1.43v0.71
		C472.7,382.22,472.16,382.54,471.46,382.54 M471.67,378.04c-0.82,0-1.58,0.23-2.11,0.65l0.38,0.69c0.39-0.34,1.01-0.55,1.62-0.55
		c0.91,0,1.37,0.45,1.37,1.23v0.18h-1.46c-1.52,0-2.05,0.67-2.05,1.49c0,0.89,0.73,1.5,1.89,1.5c0.8,0,1.37-0.27,1.67-0.73v0.67
		h0.88v-3.08C473.86,378.71,473.07,378.04,471.67,378.04 M467.13,383.19h0.92v-7.14h-0.92V383.19z M463.2,382.44
		c-0.97,0-1.71-0.71-1.71-1.8c0-1.08,0.74-1.79,1.71-1.79c0.98,0,1.72,0.71,1.72,1.79C464.92,381.73,464.18,382.44,463.2,382.44
		 M463.27,378.04c-0.75,0-1.4,0.29-1.82,0.85v-0.81h-0.88v6.97h0.92v-2.64c0.42,0.55,1.06,0.83,1.78,0.83
		c1.49,0,2.58-1.04,2.58-2.61C465.85,379.08,464.77,378.04,463.27,378.04 M456.78,378.04c-0.87,0-1.58,0.36-1.96,0.94
		c-0.34-0.63-0.99-0.94-1.77-0.94c-0.77,0-1.4,0.29-1.76,0.81v-0.76h-0.89v5.1h0.92v-2.63c0-1.11,0.61-1.7,1.53-1.7
		c0.84,0,1.32,0.49,1.32,1.49v2.83h0.92v-2.63c0-1.11,0.61-1.69,1.53-1.69c0.84,0,1.32,0.49,1.32,1.49v2.83h0.92v-2.93
		C458.86,378.75,458.02,378.04,456.78,378.04 M446.6,378.82c0.9,0,1.54,0.61,1.64,1.46h-3.27
		C445.05,379.42,445.71,378.82,446.6,378.82 M449.12,380.67c0-1.57-1.05-2.63-2.52-2.63c-1.47,0-2.56,1.09-2.56,2.6
		c0,1.52,1.1,2.61,2.74,2.61c0.85,0,1.55-0.29,2.01-0.83l-0.51-0.6c-0.38,0.41-0.88,0.62-1.47,0.62c-1.01,0-1.73-0.6-1.85-1.49h4.14
		C449.11,380.86,449.12,380.74,449.12,380.67 M440.86,383.19h0.95v-5.9h2.31v-0.84h-5.57v0.84h2.31V383.19z M436.7,383.19h0.92
		v-7.14h-0.92V383.19z M432.78,382.44c-0.98,0-1.72-0.71-1.72-1.8c0-1.09,0.74-1.79,1.72-1.79c0.98,0,1.71,0.7,1.71,1.79
		C434.49,381.73,433.76,382.44,432.78,382.44 M432.78,383.25c1.53,0,2.65-1.09,2.65-2.61c0-1.52-1.12-2.6-2.65-2.6
		c-1.53,0-2.66,1.08-2.66,2.6C430.12,382.16,431.24,383.25,432.78,383.25 M427.65,378.94v-0.86h-0.88v5.1h0.92v-2.54
		c0-1.12,0.62-1.72,1.61-1.72c0.07,0,0.13,0,0.21,0.01v-0.89C428.61,378.04,427.97,378.35,427.65,378.94 M425.36,382.23
		c-0.19,0.15-0.45,0.24-0.72,0.24c-0.51,0-0.8-0.31-0.8-0.86v-2.76h1.46v-0.76h-1.46v-1.12h-0.92v1.12h-0.87v0.76h0.87v2.8
		c0,1.03,0.59,1.6,1.62,1.6c0.41,0,0.84-0.12,1.12-0.36L425.36,382.23z M418.95,378.04c-0.81,0-1.46,0.3-1.84,0.82v-0.77h-0.88v5.1
		h0.92v-2.63c0-1.11,0.64-1.7,1.62-1.7c0.88,0,1.38,0.49,1.38,1.49v2.83h0.92v-2.93C421.06,378.75,420.19,378.04,418.95,378.04
		 M412.3,382.44c-0.98,0-1.72-0.71-1.72-1.8c0-1.09,0.74-1.79,1.72-1.79c0.98,0,1.71,0.7,1.71,1.79
		C414.01,381.73,413.28,382.44,412.3,382.44 M412.3,383.25c1.53,0,2.65-1.09,2.65-2.61c0-1.52-1.12-2.6-2.65-2.6
		c-1.53,0-2.66,1.08-2.66,2.6C409.64,382.16,410.77,383.25,412.3,383.25 M406.51,383.27c1.05,0,1.95-0.36,2.57-1.06l-0.63-0.61
		c-0.52,0.55-1.15,0.81-1.9,0.81c-1.52,0-2.65-1.1-2.65-2.59s1.13-2.59,2.65-2.59c0.74,0,1.38,0.25,1.9,0.8l0.63-0.61
		c-0.62-0.69-1.52-1.05-2.56-1.05c-2.05,0-3.57,1.45-3.57,3.44C402.95,381.81,404.47,383.27,406.51,383.27 M401.84,377.7l-4.31,1.7
		v0.83l4.31,1.7v-0.8l-3.42-1.32l3.42-1.32V377.7z"/>
	<path class="st6" d="M346.37,379.76c-0.94,0-1.53-0.51-1.53-1.3c0-0.8,0.61-1.31,1.48-1.31c1.05,0,1.61,0.61,1.61,1.3
		C347.93,379.2,347.29,379.76,346.37,379.76 M346.28,376.38c-1.34,0-2.38,0.83-2.38,2.13c0,1.24,0.96,2.04,2.3,2.04
		c0.84,0,1.55-0.3,1.95-0.88v0.24c0,1.68-0.87,2.54-2.23,2.54c-0.49,0-0.94-0.09-1.3-0.32l-0.37,0.75c0.43,0.27,1.04,0.39,1.67,0.39
		c1.89,0,3.18-1.23,3.18-3.53C349.11,377.59,348.09,376.38,346.28,376.38"/>
	<path class="st6" d="M529.46,366.16v0.8l3.42,1.32l-3.42,1.32v0.8l4.31-1.7v-0.83L529.46,366.16z M527.74,364.44
		c-0.37,0-0.64,0.27-0.64,0.65c0,0.29,0.16,0.51,0.4,0.6l-0.36,1.43h0.61l0.46-1.35c0.12-0.36,0.15-0.5,0.15-0.68
		C528.36,364.72,528.1,364.44,527.74,364.44 M525.92,364.44c-0.37,0-0.64,0.27-0.64,0.65c0,0.29,0.16,0.51,0.4,0.6l-0.36,1.43h0.61
		l0.46-1.35c0.12-0.36,0.15-0.5,0.15-0.68C526.54,364.72,526.28,364.44,525.92,364.44 M521.9,367.27c0.9,0,1.54,0.61,1.64,1.46
		h-3.27C520.36,367.87,521.02,367.27,521.9,367.27 M524.42,369.12c0-1.57-1.05-2.63-2.52-2.63s-2.56,1.09-2.56,2.6
		c0,1.52,1.1,2.61,2.74,2.61c0.85,0,1.55-0.29,2.01-0.83l-0.51-0.6c-0.38,0.41-0.88,0.62-1.47,0.62c-1.01,0-1.73-0.6-1.85-1.49h4.14
		C524.42,369.31,524.42,369.2,524.42,369.12 M518.58,370.68c-0.19,0.15-0.45,0.24-0.72,0.24c-0.51,0-0.8-0.31-0.8-0.86v-2.76h1.46
		v-0.76h-1.46v-1.12h-0.92v1.12h-0.87v0.76h0.87v2.8c0,1.03,0.59,1.6,1.62,1.6c0.41,0,0.84-0.12,1.12-0.36L518.58,370.68z
		 M511.9,370.99c-0.7,0-1.13-0.32-1.13-0.83c0-0.43,0.26-0.79,1.17-0.79h1.43v0.71C513.14,370.67,512.59,370.99,511.9,370.99
		 M512.11,366.49c-0.82,0-1.58,0.23-2.11,0.65l0.39,0.69c0.39-0.34,1.01-0.55,1.62-0.55c0.91,0,1.37,0.45,1.37,1.23v0.18h-1.46
		c-1.52,0-2.05,0.67-2.05,1.49c0,0.89,0.73,1.5,1.89,1.5c0.8,0,1.37-0.27,1.67-0.73v0.67h0.88v-3.08
		C514.29,367.17,513.5,366.49,512.11,366.49 M507.57,371.64h0.92v-7.14h-0.92V371.64z M503.63,370.89c-0.97,0-1.71-0.71-1.71-1.8
		c0-1.08,0.74-1.79,1.71-1.79c0.98,0,1.72,0.71,1.72,1.79C505.35,370.18,504.61,370.89,503.63,370.89 M503.71,366.49
		c-0.75,0-1.4,0.29-1.82,0.85v-0.81H501v6.97h0.92v-2.63c0.42,0.55,1.06,0.83,1.78,0.83c1.49,0,2.58-1.04,2.58-2.61
		C506.28,367.53,505.2,366.49,503.71,366.49 M497.21,366.49c-0.87,0-1.58,0.36-1.96,0.94c-0.34-0.64-0.99-0.94-1.77-0.94
		c-0.77,0-1.4,0.29-1.76,0.81v-0.76h-0.88v5.1h0.92v-2.63c0-1.11,0.61-1.7,1.53-1.7c0.84,0,1.32,0.49,1.32,1.49v2.83h0.92v-2.63
		c0-1.11,0.61-1.69,1.53-1.69c0.84,0,1.32,0.49,1.32,1.49v2.83h0.92v-2.93C499.3,367.2,498.45,366.49,497.21,366.49 M487.03,367.27
		c0.9,0,1.54,0.61,1.64,1.46h-3.27C485.49,367.87,486.14,367.27,487.03,367.27 M489.55,369.12c0-1.57-1.05-2.63-2.52-2.63
		c-1.47,0-2.56,1.09-2.56,2.6c0,1.52,1.1,2.61,2.74,2.61c0.85,0,1.55-0.29,2.01-0.83l-0.51-0.6c-0.38,0.41-0.88,0.62-1.47,0.62
		c-1.01,0-1.73-0.6-1.85-1.49h4.14C489.54,369.31,489.55,369.2,489.55,369.12 M481.29,371.64h0.95v-5.9h2.31v-0.84h-5.57v0.84h2.31
		V371.64z M477.61,364.44c-0.36,0-0.64,0.27-0.64,0.65c0,0.29,0.16,0.51,0.4,0.6l-0.36,1.43h0.6l0.46-1.35
		c0.12-0.36,0.15-0.5,0.15-0.68C478.23,364.72,477.97,364.44,477.61,364.44 M475.79,364.44c-0.36,0-0.64,0.27-0.64,0.65
		c0,0.29,0.16,0.51,0.4,0.6l-0.36,1.43h0.61l0.46-1.35c0.12-0.36,0.15-0.5,0.15-0.68C476.41,364.72,476.15,364.44,475.79,364.44
		 M469.73,369.79h4.31v-0.76h-4.31V369.79z M469.73,367.51h4.31v-0.76h-4.31V367.51z M468.18,366.54l-1.76,4.08l-1.78-4.08h-0.96
		l2.25,5.09l-0.16,0.36c-0.25,0.59-0.53,0.79-0.97,0.79c-0.35,0-0.66-0.13-0.91-0.38l-0.39,0.69c0.32,0.31,0.82,0.47,1.31,0.47
		c0.78,0,1.37-0.34,1.82-1.41l2.47-5.61H468.18z M463.27,370.68c-0.19,0.15-0.45,0.24-0.72,0.24c-0.51,0-0.8-0.31-0.8-0.86v-2.76
		h1.46v-0.76h-1.46v-1.12h-0.92v1.12h-0.87v0.76h0.87v2.8c0,1.03,0.59,1.6,1.62,1.6c0.41,0,0.84-0.12,1.12-0.36L463.27,370.68z
		 M457.48,367.4v-0.86h-0.89v5.1h0.92v-2.54c0-1.12,0.62-1.72,1.61-1.72c0.07,0,0.14,0,0.21,0.01v-0.89
		C458.45,366.49,457.81,366.8,457.48,367.4 M452.8,367.27c0.9,0,1.54,0.61,1.64,1.46h-3.27
		C451.26,367.87,451.91,367.27,452.8,367.27 M455.32,369.12c0-1.57-1.05-2.63-2.52-2.63c-1.47,0-2.56,1.09-2.56,2.6
		c0,1.52,1.1,2.61,2.74,2.61c0.85,0,1.55-0.29,2.01-0.83l-0.51-0.6c-0.38,0.41-0.88,0.62-1.47,0.62c-1.01,0-1.73-0.6-1.85-1.49h4.14
		C455.31,369.31,455.32,369.2,455.32,369.12 M446.77,370.89c-0.97,0-1.71-0.71-1.71-1.8c0-1.08,0.74-1.79,1.71-1.79
		c0.98,0,1.72,0.71,1.72,1.79C448.5,370.18,447.75,370.89,446.77,370.89 M446.85,366.49c-0.75,0-1.41,0.29-1.82,0.85v-0.81h-0.88
		v6.97h0.92v-2.63c0.42,0.55,1.06,0.83,1.78,0.83c1.49,0,2.58-1.04,2.58-2.61C449.43,367.53,448.34,366.49,446.85,366.49
		 M440.22,370.89c-0.98,0-1.72-0.71-1.72-1.8s0.74-1.79,1.72-1.79c0.98,0,1.71,0.7,1.71,1.79S441.2,370.89,440.22,370.89
		 M440.22,371.7c1.53,0,2.65-1.09,2.65-2.61s-1.11-2.6-2.65-2.6c-1.53,0-2.65,1.08-2.65,2.6S438.69,371.7,440.22,371.7
		 M435.09,367.4v-0.86h-0.88v5.1h0.92v-2.54c0-1.12,0.62-1.72,1.61-1.72c0.07,0,0.13,0,0.21,0.01v-0.89
		C436.05,366.49,435.42,366.8,435.09,367.4 M430.17,368.76h-1.64v-3.02h1.64c1.23,0,1.88,0.55,1.88,1.51
		C432.05,368.21,431.4,368.76,430.17,368.76 M430.2,364.9h-2.63v6.73h0.96v-2.04h1.67c1.75,0,2.81-0.88,2.81-2.35
		C433.01,365.79,431.95,364.9,430.2,364.9"/>
	<path class="st5" d="M417.65,367.4v-0.85h-0.89v5.1h0.92v-2.54c0-1.12,0.62-1.72,1.61-1.72c0.07,0,0.14,0,0.21,0.01v-0.89
		C418.61,366.49,417.97,366.8,417.65,367.4 M412.96,367.27c0.9,0,1.54,0.61,1.64,1.46h-3.27
		C411.42,367.87,412.08,367.27,412.96,367.27 M415.48,369.12c0-1.57-1.05-2.63-2.52-2.63s-2.56,1.09-2.56,2.6
		c0,1.52,1.1,2.61,2.74,2.61c0.85,0,1.55-0.29,2.01-0.83l-0.51-0.6c-0.38,0.42-0.88,0.62-1.47,0.62c-1.01,0-1.73-0.6-1.85-1.49h4.14
		C415.47,369.31,415.48,369.2,415.48,369.12 M409.64,370.68c-0.19,0.15-0.45,0.24-0.72,0.24c-0.51,0-0.8-0.31-0.8-0.86v-2.76h1.46
		v-0.76h-1.46v-1.12h-0.92v1.12h-0.87v0.76h0.87v2.8c0,1.03,0.59,1.6,1.62,1.6c0.41,0,0.84-0.11,1.12-0.35L409.64,370.68z
		 M405.78,370.68c-0.19,0.15-0.45,0.24-0.72,0.24c-0.51,0-0.8-0.31-0.8-0.86v-2.76h1.46v-0.76h-1.46v-1.12h-0.92v1.12h-0.87v0.76
		h0.87v2.8c0,1.03,0.59,1.6,1.62,1.6c0.41,0,0.84-0.11,1.12-0.35L405.78,370.68z M399.4,367.27c0.89,0,1.54,0.61,1.64,1.46h-3.27
		C397.86,367.87,398.52,367.27,399.4,367.27 M401.92,369.12c0-1.57-1.05-2.63-2.52-2.63c-1.47,0-2.56,1.09-2.56,2.6
		c0,1.52,1.1,2.61,2.74,2.61c0.85,0,1.55-0.29,2.01-0.83l-0.51-0.6c-0.38,0.42-0.88,0.62-1.47,0.62c-1.01,0-1.73-0.6-1.85-1.49h4.14
		C401.91,369.31,401.92,369.2,401.92,369.12 M393.43,371.72c1.78,0,2.61-0.88,2.61-1.91c0-2.47-4.08-1.44-4.08-3.09
		c0-0.59,0.49-1.07,1.64-1.07c0.6,0,1.26,0.17,1.85,0.55l0.32-0.77c-0.56-0.39-1.38-0.6-2.17-0.6c-1.77,0-2.58,0.88-2.58,1.93
		c0,2.5,4.08,1.46,4.08,3.11c0,0.59-0.5,1.04-1.67,1.04c-0.87,0-1.72-0.33-2.22-0.78l-0.36,0.75
		C391.39,371.37,392.4,371.72,393.43,371.72 M389.82,366.16l-4.31,1.7v0.83l4.31,1.7v-0.8l-3.42-1.32l3.42-1.32V366.16z"/>
	<path class="st6" d="M346.46,370.94c-1.07,0-1.7-0.47-1.7-1.23c0-0.74,0.64-1.2,1.7-1.2c1.07,0,1.72,0.46,1.72,1.2
		C348.19,370.47,347.53,370.94,346.46,370.94 M346.46,365.61c0.9,0,1.5,0.41,1.5,1.09c0,0.67-0.57,1.08-1.5,1.08
		c-0.92,0-1.47-0.41-1.47-1.08C344.99,366.02,345.56,365.61,346.46,365.61 M347.96,368.11c0.61-0.29,0.95-0.79,0.95-1.45
		c0-1.13-0.98-1.83-2.44-1.83c-1.45,0-2.43,0.7-2.43,1.83c0,0.66,0.33,1.16,0.94,1.45c-0.76,0.29-1.18,0.86-1.18,1.63
		c0,1.22,1.03,1.98,2.67,1.98c1.65,0,2.68-0.76,2.68-1.98C349.15,368.96,348.73,368.41,347.96,368.11"/>
	<path class="st6" d="M618.24,354.61v0.8l3.43,1.32l-3.43,1.32v0.8l4.31-1.7v-0.83L618.24,354.61z M613.94,361.05h0.84l3.17-9.07
		h-0.84L613.94,361.05z M610.54,352.89c-0.37,0-0.64,0.27-0.64,0.65c0,0.29,0.16,0.51,0.4,0.6l-0.36,1.43h0.61l0.46-1.35
		c0.12-0.36,0.15-0.5,0.15-0.68C611.16,353.17,610.9,352.89,610.54,352.89 M608.72,352.89c-0.36,0-0.64,0.27-0.64,0.65
		c0,0.29,0.16,0.51,0.4,0.6l-0.36,1.43h0.61l0.46-1.35c0.12-0.36,0.15-0.5,0.15-0.68C609.34,353.17,609.08,352.89,608.72,352.89
		 M604.13,353.36v0.84h1.52v5.9h0.95v-6.74H604.13z M602.52,352.89c-0.37,0-0.64,0.27-0.64,0.65c0,0.29,0.16,0.51,0.4,0.6
		l-0.35,1.43h0.6l0.46-1.35c0.12-0.36,0.15-0.5,0.15-0.68C603.15,353.17,602.89,352.89,602.52,352.89 M600.7,352.89
		c-0.36,0-0.64,0.27-0.64,0.65c0,0.29,0.16,0.51,0.4,0.6l-0.36,1.43h0.61l0.46-1.35c0.12-0.36,0.15-0.5,0.15-0.68
		C601.33,353.17,601.07,352.89,600.7,352.89 M594.64,358.24h4.31v-0.76h-4.31V358.24z M594.64,355.96h4.31v-0.76h-4.31V355.96z
		 M591.07,355.72c0.9,0,1.54,0.61,1.64,1.46h-3.27C589.53,356.32,590.18,355.72,591.07,355.72 M593.59,357.57
		c0-1.57-1.05-2.63-2.52-2.63c-1.47,0-2.56,1.09-2.56,2.6c0,1.52,1.1,2.61,2.74,2.61c0.85,0,1.55-0.29,2.01-0.83l-0.51-0.6
		c-0.38,0.41-0.88,0.62-1.47,0.62c-1.01,0-1.73-0.6-1.85-1.49h4.14C593.58,357.76,593.59,357.65,593.59,357.57 M586.3,354.99v2.64
		c0,1.1-0.62,1.69-1.58,1.69c-0.88,0-1.38-0.5-1.38-1.5v-2.83h-0.92v2.94c0,1.5,0.87,2.22,2.19,2.22c0.72,0,1.36-0.3,1.73-0.83v0.77
		h0.88v-5.1H586.3z M579.78,360.09h0.92v-7.14h-0.92V360.09z M575.67,359.44c-0.7,0-1.13-0.32-1.13-0.83c0-0.43,0.26-0.79,1.17-0.79
		h1.43v0.71C576.91,359.12,576.36,359.44,575.67,359.44 M575.88,354.94c-0.82,0-1.58,0.23-2.11,0.65l0.38,0.69
		c0.39-0.34,1.01-0.55,1.62-0.55c0.91,0,1.37,0.45,1.37,1.23v0.18h-1.46c-1.52,0-2.05,0.67-2.05,1.49c0,0.89,0.73,1.5,1.89,1.5
		c0.8,0,1.37-0.27,1.67-0.73v0.67h0.88v-3.08C578.07,355.62,577.28,354.94,575.88,354.94 M572.73,353.36l-2.44,5.53l-2.43-5.53
		h-1.04l2.96,6.74h0.95l2.95-6.74H572.73z M563.16,352.89c-0.36,0-0.64,0.27-0.64,0.65c0,0.29,0.16,0.51,0.4,0.6l-0.36,1.43h0.61
		l0.46-1.35c0.12-0.36,0.15-0.5,0.15-0.68C563.79,353.17,563.53,352.89,563.16,352.89 M561.34,352.89c-0.36,0-0.64,0.27-0.64,0.65
		c0,0.29,0.16,0.51,0.4,0.6l-0.36,1.43h0.61l0.46-1.35c0.12-0.36,0.15-0.5,0.15-0.68C561.97,353.17,561.71,352.89,561.34,352.89
		 M557.75,360.15c1.36,0,2.2-0.59,2.2-1.51c0-1.98-3.23-1-3.23-2.2c0-0.4,0.4-0.7,1.2-0.7c0.5,0,1.01,0.11,1.47,0.4l0.39-0.73
		c-0.44-0.29-1.19-0.46-1.86-0.46c-1.31,0-2.13,0.61-2.13,1.53c0,2.03,3.22,1.04,3.22,2.18c0,0.43-0.36,0.69-1.21,0.69
		c-0.66,0-1.36-0.22-1.79-0.53l-0.38,0.73C556.07,359.89,556.9,360.15,557.75,360.15 M552.93,360.15c1.36,0,2.2-0.59,2.2-1.51
		c0-1.98-3.23-1-3.23-2.2c0-0.4,0.4-0.7,1.2-0.7c0.5,0,1.01,0.11,1.47,0.4l0.39-0.73c-0.44-0.29-1.19-0.46-1.86-0.46
		c-1.31,0-2.13,0.61-2.13,1.53c0,2.03,3.22,1.04,3.22,2.18c0,0.43-0.36,0.69-1.21,0.69c-0.66,0-1.36-0.22-1.79-0.53l-0.39,0.73
		C551.25,359.89,552.08,360.15,552.93,360.15 M547.67,355.72c0.9,0,1.54,0.61,1.64,1.46h-3.27
		C546.13,356.32,546.78,355.72,547.67,355.72 M550.19,357.57c0-1.57-1.05-2.63-2.52-2.63s-2.56,1.09-2.56,2.6
		c0,1.52,1.1,2.61,2.74,2.61c0.85,0,1.55-0.29,2.01-0.83l-0.51-0.6c-0.38,0.41-0.88,0.62-1.47,0.62c-1.01,0-1.73-0.6-1.85-1.49h4.14
		C550.18,357.76,550.19,357.65,550.19,357.57 M541.72,354.94c-0.81,0-1.46,0.3-1.84,0.82v-0.77H539v5.1h0.92v-2.63
		c0-1.11,0.64-1.7,1.62-1.7c0.88,0,1.38,0.49,1.38,1.49v2.83h0.92v-2.93C543.84,355.66,542.96,354.94,541.72,354.94 M537.03,360.09
		h1.14l-2.36-2.99l2.15-2.11h-1.12l-2.78,2.54v-4.58h-0.92v7.14h0.92v-1.39l1.06-0.98L537.03,360.09z M529.93,360.15
		c0.91,0,1.67-0.38,2.08-1.1l-0.7-0.44c-0.33,0.5-0.83,0.73-1.39,0.73c-1,0-1.75-0.69-1.75-1.8c0-1.09,0.75-1.79,1.75-1.79
		c0.56,0,1.06,0.23,1.39,0.73l0.7-0.45c-0.4-0.71-1.16-1.09-2.08-1.09c-1.57,0-2.69,1.08-2.69,2.6S528.36,360.15,529.93,360.15
		 M525.02,360.09h0.92v-5.1h-0.92V360.09z M525.48,354.01c0.37,0,0.62-0.27,0.62-0.61c0-0.33-0.27-0.59-0.62-0.59
		c-0.36,0-0.62,0.27-0.62,0.61C524.86,353.75,525.13,354.01,525.48,354.01 M521.19,354.94c-0.78,0-1.42,0.28-1.8,0.77v-2.76h-0.92
		v7.14h0.92v-2.63c0-1.11,0.64-1.69,1.62-1.69c0.88,0,1.38,0.49,1.38,1.49v2.83h0.92v-2.93
		C523.31,355.66,522.43,354.94,521.19,354.94 M514.29,360.09h0.95v-5.9h2.31v-0.84h-5.57v0.84h2.31V360.09z M510.12,355.85v-0.86
		h-0.88v5.1h0.92v-2.54c0-1.12,0.62-1.72,1.61-1.72c0.07,0,0.13,0,0.21,0.01v-0.89C511.09,354.94,510.45,355.25,510.12,355.85
		 M505.44,355.72c0.9,0,1.54,0.61,1.64,1.46h-3.27C503.9,356.32,504.55,355.72,505.44,355.72 M507.96,357.57
		c0-1.57-1.05-2.63-2.52-2.63c-1.47,0-2.56,1.09-2.56,2.6c0,1.52,1.1,2.61,2.74,2.61c0.85,0,1.55-0.29,2.01-0.83l-0.51-0.6
		c-0.38,0.41-0.88,0.62-1.47,0.62c-1.01,0-1.73-0.6-1.85-1.49h4.14C507.95,357.76,507.96,357.65,507.96,357.57 M498.97,359.34
		c-0.98,0-1.72-0.71-1.72-1.8c0-1.09,0.74-1.79,1.72-1.79c0.97,0,1.71,0.7,1.71,1.79C500.68,358.63,499.94,359.34,498.97,359.34
		 M500.67,352.95v2.81c-0.42-0.55-1.06-0.82-1.78-0.82c-1.49,0-2.58,1.04-2.58,2.6c0,1.56,1.09,2.61,2.58,2.61
		c0.75,0,1.41-0.29,1.82-0.86v0.81h0.88v-7.14H500.67z M493.84,355.85v-0.86h-0.88v5.1h0.92v-2.54c0-1.12,0.62-1.72,1.61-1.72
		c0.07,0,0.14,0,0.21,0.01v-0.89C494.8,354.94,494.17,355.25,493.84,355.85 M489.03,359.34c-0.98,0-1.72-0.71-1.72-1.8
		c0-1.09,0.74-1.79,1.72-1.79s1.71,0.7,1.71,1.79C490.74,358.63,490.01,359.34,489.03,359.34 M489.03,360.15
		c1.53,0,2.65-1.09,2.65-2.61s-1.11-2.6-2.65-2.6s-2.66,1.08-2.66,2.6S487.5,360.15,489.03,360.15 M482.87,359.31h-2.21v-2.24h2.21
		c1.07,0,1.65,0.35,1.65,1.13S483.94,359.31,482.87,359.31 M482.63,354.13c0.98,0,1.54,0.37,1.54,1.08c0,0.71-0.56,1.08-1.54,1.08
		h-1.97v-2.16H482.63z M484.23,356.6c0.53-0.26,0.9-0.77,0.9-1.5c0-1.09-0.87-1.74-2.42-1.74h-3.02v6.74h3.21
		c1.7,0,2.58-0.66,2.58-1.82C485.49,357.38,484.99,356.81,484.23,356.6 M477.61,352.89c-0.36,0-0.64,0.27-0.64,0.65
		c0,0.29,0.16,0.51,0.4,0.6l-0.36,1.43h0.6l0.46-1.35c0.12-0.36,0.15-0.5,0.15-0.68C478.23,353.17,477.97,352.89,477.61,352.89
		 M475.79,352.89c-0.36,0-0.64,0.27-0.64,0.65c0,0.29,0.16,0.51,0.4,0.6l-0.36,1.43h0.61l0.46-1.35c0.12-0.36,0.15-0.5,0.15-0.68
		C476.41,353.17,476.15,352.89,475.79,352.89 M469.73,358.24h4.31v-0.76h-4.31V358.24z M469.73,355.96h4.31v-0.76h-4.31V355.96z
		 M468.18,354.99l-1.76,4.08l-1.78-4.08h-0.96l2.25,5.09l-0.16,0.36c-0.25,0.59-0.53,0.79-0.97,0.79c-0.35,0-0.66-0.13-0.91-0.38
		l-0.39,0.69c0.32,0.31,0.82,0.47,1.31,0.47c0.78,0,1.37-0.34,1.82-1.41l2.47-5.61H468.18z M463.27,359.13
		c-0.19,0.15-0.45,0.24-0.72,0.24c-0.51,0-0.8-0.31-0.8-0.86v-2.76h1.46v-0.76h-1.46v-1.12h-0.92v1.12h-0.87v0.76h0.87v2.8
		c0,1.03,0.59,1.6,1.62,1.6c0.41,0,0.84-0.11,1.12-0.36L463.27,359.13z M457.48,355.85v-0.86h-0.89v5.1h0.92v-2.54
		c0-1.12,0.62-1.72,1.61-1.72c0.07,0,0.14,0,0.21,0.01v-0.89C458.45,354.94,457.81,355.25,457.48,355.85 M452.8,355.72
		c0.9,0,1.54,0.61,1.64,1.46h-3.27C451.26,356.32,451.91,355.72,452.8,355.72 M455.32,357.57c0-1.57-1.05-2.63-2.52-2.63
		c-1.47,0-2.56,1.09-2.56,2.6c0,1.52,1.1,2.61,2.74,2.61c0.85,0,1.55-0.29,2.01-0.83l-0.51-0.6c-0.38,0.41-0.88,0.62-1.47,0.62
		c-1.01,0-1.73-0.6-1.85-1.49h4.14C455.31,357.76,455.32,357.65,455.32,357.57 M446.77,359.34c-0.97,0-1.71-0.71-1.71-1.8
		c0-1.08,0.74-1.79,1.71-1.79c0.98,0,1.72,0.71,1.72,1.79C448.5,358.63,447.75,359.34,446.77,359.34 M446.85,354.94
		c-0.75,0-1.41,0.29-1.82,0.86v-0.81h-0.88v6.97h0.92v-2.63c0.42,0.55,1.06,0.83,1.78,0.83c1.49,0,2.58-1.04,2.58-2.61
		C449.43,355.98,448.34,354.94,446.85,354.94 M440.22,359.34c-0.98,0-1.72-0.71-1.72-1.8c0-1.09,0.74-1.79,1.72-1.79
		c0.98,0,1.71,0.7,1.71,1.79C441.93,358.63,441.2,359.34,440.22,359.34 M440.22,360.15c1.53,0,2.65-1.09,2.65-2.61
		s-1.11-2.6-2.65-2.6c-1.53,0-2.65,1.08-2.65,2.6S438.69,360.15,440.22,360.15 M435.09,355.85v-0.86h-0.88v5.1h0.92v-2.54
		c0-1.12,0.62-1.72,1.61-1.72c0.07,0,0.13,0,0.21,0.01v-0.89C436.05,354.94,435.42,355.25,435.09,355.85 M430.17,357.22h-1.64v-3.02
		h1.64c1.23,0,1.88,0.55,1.88,1.51C432.05,356.67,431.4,357.22,430.17,357.22 M430.2,353.36h-2.63v6.74h0.96v-2.04h1.67
		c1.75,0,2.81-0.88,2.81-2.35C433.01,354.24,431.95,353.36,430.2,353.36"/>
	<path class="st5" d="M417.65,355.85v-0.86h-0.89v5.1h0.92v-2.54c0-1.12,0.62-1.72,1.61-1.72c0.07,0,0.14,0,0.21,0.01v-0.89
		C418.61,354.94,417.97,355.25,417.65,355.85 M412.96,355.72c0.9,0,1.54,0.61,1.64,1.46h-3.27
		C411.42,356.32,412.08,355.72,412.96,355.72 M415.48,357.57c0-1.57-1.05-2.63-2.52-2.63s-2.56,1.09-2.56,2.6
		c0,1.52,1.1,2.61,2.74,2.61c0.85,0,1.55-0.29,2.01-0.83l-0.51-0.6c-0.38,0.41-0.88,0.62-1.47,0.62c-1.01,0-1.73-0.6-1.85-1.49h4.14
		C415.47,357.76,415.48,357.65,415.48,357.57 M409.64,359.13c-0.19,0.15-0.45,0.24-0.72,0.24c-0.51,0-0.8-0.31-0.8-0.86v-2.76h1.46
		v-0.76h-1.46v-1.12h-0.92v1.12h-0.87v0.76h0.87v2.8c0,1.03,0.59,1.6,1.62,1.6c0.41,0,0.84-0.12,1.12-0.36L409.64,359.13z
		 M405.78,359.13c-0.19,0.15-0.45,0.24-0.72,0.24c-0.51,0-0.8-0.31-0.8-0.86v-2.76h1.46v-0.76h-1.46v-1.12h-0.92v1.12h-0.87v0.76
		h0.87v2.8c0,1.03,0.59,1.6,1.62,1.6c0.41,0,0.84-0.12,1.12-0.36L405.78,359.13z M399.4,355.72c0.89,0,1.54,0.61,1.64,1.46h-3.27
		C397.86,356.32,398.52,355.72,399.4,355.72 M401.92,357.57c0-1.57-1.05-2.63-2.52-2.63c-1.47,0-2.56,1.09-2.56,2.6
		c0,1.52,1.1,2.61,2.74,2.61c0.85,0,1.55-0.29,2.01-0.83l-0.51-0.6c-0.38,0.41-0.88,0.62-1.47,0.62c-1.01,0-1.73-0.6-1.85-1.49h4.14
		C401.91,357.76,401.92,357.65,401.92,357.57 M393.43,360.17c1.78,0,2.61-0.88,2.61-1.91c0-2.47-4.08-1.44-4.08-3.09
		c0-0.59,0.49-1.07,1.64-1.07c0.6,0,1.26,0.17,1.85,0.55l0.32-0.77c-0.56-0.38-1.38-0.6-2.17-0.6c-1.77,0-2.58,0.88-2.58,1.93
		c0,2.5,4.08,1.46,4.08,3.11c0,0.59-0.5,1.04-1.67,1.04c-0.87,0-1.72-0.33-2.22-0.78l-0.36,0.75
		C391.39,359.82,392.4,360.17,393.43,360.17 M389.82,354.61l-4.31,1.7v0.83l4.31,1.7v-0.8l-3.42-1.32l3.42-1.32V354.61z"/>
</g>
<polygon class="st1" points="344.11,353.36 344.11,355.4 345.03,355.4 345.03,354.19 348.11,354.19 345.44,360.09 346.46,360.09 
	349.19,354.01 349.19,353.36 "/>
<g>
	<defs>
		<rect id="SVGID_21_" x="333.47" y="270.65" width="140.4" height="202.55"/>
	</defs>
	<clipPath id="SVGID_22_">
		<use xlink:href="#SVGID_21_"  style="overflow:visible;"/>
	</clipPath>
	<path class="st7" d="M627.47,348.6c0.91,0,1.68-0.38,2.08-1.1l-0.7-0.44c-0.33,0.5-0.83,0.73-1.39,0.73c-1,0-1.75-0.69-1.75-1.8
		c0-1.09,0.75-1.79,1.75-1.79c0.56,0,1.06,0.23,1.39,0.73l0.7-0.45c-0.4-0.71-1.17-1.09-2.08-1.09c-1.57,0-2.69,1.08-2.69,2.6
		S625.91,348.6,627.47,348.6 M622.57,348.54h0.92v-5.1h-0.92V348.54z M623.03,342.46c0.37,0,0.62-0.27,0.62-0.61
		c0-0.33-0.27-0.59-0.62-0.59c-0.36,0-0.62,0.27-0.62,0.61C622.4,342.2,622.67,342.46,623.03,342.46 M618.78,343.4
		c-0.87,0-1.58,0.36-1.96,0.94c-0.34-0.63-0.99-0.94-1.77-0.94c-0.77,0-1.4,0.29-1.76,0.81v-0.76h-0.88v5.1h0.92v-2.63
		c0-1.11,0.61-1.7,1.53-1.7c0.84,0,1.32,0.49,1.32,1.49v2.83h0.92v-2.63c0-1.11,0.61-1.69,1.53-1.69c0.84,0,1.32,0.49,1.32,1.49
		v2.83h0.92v-2.93C620.86,344.11,620.02,343.4,618.78,343.4 M608.29,347.89c-0.7,0-1.13-0.32-1.13-0.83c0-0.43,0.26-0.79,1.17-0.79
		h1.42v0.71C609.53,347.57,608.98,347.89,608.29,347.89 M608.5,343.4c-0.82,0-1.58,0.23-2.11,0.65l0.38,0.69
		c0.39-0.34,1.01-0.55,1.62-0.55c0.92,0,1.37,0.45,1.37,1.23v0.18h-1.46c-1.52,0-2.05,0.67-2.05,1.49c0,0.89,0.73,1.5,1.89,1.5
		c0.8,0,1.37-0.27,1.67-0.73v0.67h0.88v-3.08C610.68,344.07,609.89,343.4,608.5,343.4 M602.81,343.4c-0.81,0-1.46,0.3-1.84,0.82
		v-0.77h-0.88v5.1h0.92v-2.63c0-1.11,0.64-1.7,1.62-1.7c0.88,0,1.38,0.49,1.38,1.49v2.83h0.92v-2.93
		C604.93,344.11,604.05,343.4,602.81,343.4 M598.32,343.44l-1.76,4.08l-1.78-4.08h-0.96l2.25,5.09l-0.16,0.36
		c-0.25,0.59-0.53,0.79-0.97,0.79c-0.35,0-0.66-0.13-0.91-0.38l-0.4,0.69c0.32,0.31,0.82,0.47,1.31,0.47c0.78,0,1.37-0.34,1.82-1.41
		l2.47-5.61H598.32z M587.85,347.71v-5.06h1.82c1.66,0,2.73,1.02,2.73,2.53c0,1.51-1.07,2.53-2.73,2.53H587.85z M586.89,348.54h2.84
		c2.16,0,3.64-1.36,3.64-3.37c0-2-1.47-3.37-3.64-3.37h-2.84V348.54z M584.75,345.02v-2.11c0-0.48,0.23-0.75,0.71-0.75h0.24v-0.76
		h-0.42c-0.96,0-1.45,0.49-1.45,1.42v2.21c0,0.34-0.16,0.48-0.43,0.48h-0.34v0.77h0.34c0.27,0,0.43,0.15,0.43,0.48v2.21
		c0,0.93,0.49,1.42,1.45,1.42h0.42v-0.76h-0.24c-0.48,0-0.71-0.27-0.71-0.75v-2.11c0-0.55-0.17-0.77-0.53-0.88
		C584.57,345.79,584.75,345.57,584.75,345.02 M581.43,341.35c-0.37,0-0.65,0.27-0.65,0.65c0,0.29,0.16,0.51,0.4,0.6l-0.36,1.43h0.61
		l0.46-1.35c0.12-0.36,0.15-0.5,0.15-0.68C582.05,341.62,581.79,341.35,581.43,341.35 M579.61,341.35c-0.37,0-0.64,0.27-0.64,0.65
		c0,0.29,0.16,0.51,0.4,0.6l-0.35,1.43h0.6l0.46-1.35c0.12-0.36,0.15-0.5,0.15-0.68C580.23,341.62,579.97,341.35,579.61,341.35
		 M573.54,346.7h4.31v-0.76h-4.31V346.7z M573.54,344.41h4.31v-0.76h-4.31V344.41z M569.97,344.17c0.9,0,1.54,0.61,1.64,1.46h-3.27
		C568.43,344.77,569.09,344.17,569.97,344.17 M572.49,346.02c0-1.57-1.05-2.63-2.52-2.63s-2.56,1.09-2.56,2.6
		c0,1.52,1.1,2.61,2.74,2.61c0.85,0,1.55-0.29,2.01-0.83l-0.51-0.6c-0.38,0.41-0.88,0.62-1.47,0.62c-1.01,0-1.73-0.6-1.85-1.49h4.14
		C572.49,346.21,572.49,346.1,572.49,346.02 M565.2,343.44v2.64c0,1.1-0.62,1.69-1.58,1.69c-0.88,0-1.38-0.5-1.38-1.5v-2.83h-0.92
		v2.93c0,1.5,0.88,2.22,2.19,2.22c0.72,0,1.36-0.3,1.73-0.83v0.77h0.87v-5.1H565.2z M558.69,348.54h0.92v-7.14h-0.92V348.54z
		 M554.58,347.89c-0.7,0-1.13-0.32-1.13-0.83c0-0.43,0.26-0.79,1.17-0.79h1.42v0.71C555.82,347.57,555.27,347.89,554.58,347.89
		 M554.79,343.4c-0.82,0-1.58,0.23-2.11,0.65l0.39,0.69c0.39-0.34,1.01-0.55,1.62-0.55c0.91,0,1.37,0.45,1.37,1.23v0.18h-1.46
		c-1.52,0-2.05,0.67-2.05,1.49c0,0.89,0.73,1.5,1.89,1.5c0.8,0,1.37-0.27,1.68-0.73v0.67h0.87v-3.08
		C556.97,344.07,556.18,343.4,554.79,343.4 M551.63,341.81l-2.44,5.53l-2.42-5.53h-1.04l2.96,6.74h0.95l2.95-6.74H551.63z
		 M542.07,341.35c-0.36,0-0.64,0.27-0.64,0.65c0,0.29,0.16,0.51,0.4,0.6l-0.36,1.43h0.61l0.46-1.35c0.12-0.36,0.15-0.5,0.15-0.68
		C542.69,341.62,542.43,341.35,542.07,341.35 M540.25,341.35c-0.36,0-0.64,0.27-0.64,0.65c0,0.29,0.16,0.51,0.4,0.6l-0.36,1.43h0.61
		l0.46-1.35c0.12-0.36,0.15-0.5,0.15-0.68C540.87,341.62,540.61,341.35,540.25,341.35 M535.64,347.79c-0.98,0-1.72-0.71-1.72-1.8
		s0.74-1.79,1.72-1.79c0.97,0,1.71,0.7,1.71,1.79S536.61,347.79,535.64,347.79 M537.34,341.4v2.81c-0.42-0.55-1.06-0.82-1.78-0.82
		c-1.49,0-2.58,1.04-2.58,2.6c0,1.56,1.09,2.61,2.58,2.61c0.75,0,1.41-0.29,1.82-0.86v0.81h0.88v-7.14H537.34z M529.59,343.4
		c-0.81,0-1.46,0.3-1.84,0.82v-0.77h-0.88v5.1h0.92v-2.63c0-1.11,0.64-1.7,1.62-1.7c0.88,0,1.38,0.49,1.38,1.49v2.83h0.92v-2.93
		C531.71,344.11,530.84,343.4,529.59,343.4 M524.19,343.44v2.64c0,1.1-0.62,1.69-1.58,1.69c-0.88,0-1.38-0.5-1.38-1.5v-2.83h-0.92
		v2.93c0,1.5,0.87,2.22,2.19,2.22c0.72,0,1.36-0.3,1.73-0.83v0.77h0.88v-5.1H524.19z M516.43,347.79c-0.98,0-1.72-0.71-1.72-1.8
		s0.74-1.79,1.72-1.79s1.71,0.7,1.71,1.79S517.41,347.79,516.43,347.79 M516.43,348.6c1.53,0,2.65-1.09,2.65-2.61
		s-1.12-2.6-2.65-2.6c-1.53,0-2.66,1.08-2.66,2.6S514.9,348.6,516.43,348.6 M511.3,344.3v-0.85h-0.88v5.1h0.92V346
		c0-1.12,0.62-1.72,1.61-1.72c0.07,0,0.14,0,0.21,0.01v-0.89C512.26,343.4,511.63,343.7,511.3,344.3 M506,347.52
		c-1.03,0-1.76-0.68-1.76-1.67c0-0.99,0.73-1.66,1.76-1.66c1.02,0,1.75,0.66,1.75,1.66C507.75,346.84,507.02,347.52,506,347.52
		 M507.78,343.44v0.79c-0.43-0.56-1.13-0.84-1.89-0.84c-1.47,0-2.59,0.99-2.59,2.46c0,1.47,1.11,2.47,2.59,2.47
		c0.73,0,1.4-0.26,1.84-0.79v0.4c0,1.15-0.55,1.71-1.75,1.71c-0.75,0-1.49-0.26-1.96-0.66l-0.44,0.71c0.56,0.5,1.5,0.76,2.43,0.76
		c1.73,0,2.65-0.82,2.65-2.62v-4.41H507.78z M501.95,348.54h1.14l-2.36-2.99l2.15-2.11h-1.12l-2.78,2.54v-4.58h-0.92v7.14h0.92v-1.4
		l1.06-0.98L501.95,348.54z M494.85,348.6c0.91,0,1.67-0.38,2.08-1.1l-0.7-0.44c-0.33,0.5-0.83,0.73-1.39,0.73
		c-1,0-1.75-0.69-1.75-1.8c0-1.09,0.75-1.79,1.75-1.79c0.56,0,1.06,0.23,1.39,0.73l0.7-0.45c-0.4-0.71-1.16-1.09-2.08-1.09
		c-1.57,0-2.69,1.08-2.69,2.6S493.28,348.6,494.85,348.6 M488.49,347.89c-0.7,0-1.13-0.32-1.13-0.83c0-0.43,0.26-0.79,1.17-0.79
		h1.43v0.71C489.73,347.57,489.18,347.89,488.49,347.89 M488.7,343.4c-0.82,0-1.58,0.23-2.11,0.65l0.38,0.69
		c0.39-0.34,1.01-0.55,1.62-0.55c0.91,0,1.37,0.45,1.37,1.23v0.18h-1.46c-1.52,0-2.05,0.67-2.05,1.49c0,0.89,0.73,1.5,1.89,1.5
		c0.8,0,1.37-0.27,1.67-0.73v0.67h0.88v-3.08C490.89,344.07,490.1,343.4,488.7,343.4 M482.87,347.76h-2.21v-2.24h2.21
		c1.07,0,1.65,0.35,1.65,1.13C484.52,347.43,483.94,347.76,482.87,347.76 M482.63,342.59c0.98,0,1.54,0.37,1.54,1.08
		c0,0.71-0.56,1.08-1.54,1.08h-1.97v-2.16H482.63z M484.23,345.05c0.53-0.26,0.9-0.77,0.9-1.5c0-1.09-0.87-1.74-2.42-1.74h-3.02
		v6.74h3.21c1.7,0,2.58-0.66,2.58-1.82C485.49,345.83,484.99,345.26,484.23,345.05 M477.61,341.35c-0.36,0-0.64,0.27-0.64,0.65
		c0,0.29,0.16,0.51,0.4,0.6l-0.36,1.43h0.6l0.46-1.35c0.12-0.36,0.15-0.5,0.15-0.68C478.23,341.62,477.97,341.35,477.61,341.35
		 M475.79,341.35c-0.36,0-0.64,0.27-0.64,0.65c0,0.29,0.16,0.51,0.4,0.6l-0.36,1.43h0.61l0.46-1.35c0.12-0.36,0.15-0.5,0.15-0.68
		C476.41,341.62,476.15,341.35,475.79,341.35 M469.73,346.7h4.31v-0.76h-4.31V346.7z M469.73,344.41h4.31v-0.76h-4.31V344.41z
		 M468.18,343.44l-1.76,4.08l-1.78-4.08h-0.96l2.25,5.09l-0.16,0.36c-0.25,0.59-0.53,0.79-0.97,0.79c-0.35,0-0.66-0.13-0.91-0.38
		l-0.39,0.69c0.32,0.31,0.82,0.47,1.31,0.47c0.78,0,1.37-0.34,1.82-1.41l2.47-5.61H468.18z M463.27,347.58
		c-0.19,0.15-0.45,0.24-0.72,0.24c-0.51,0-0.8-0.31-0.8-0.86v-2.76h1.46v-0.76h-1.46v-1.12h-0.92v1.12h-0.87v0.76h0.87v2.8
		c0,1.03,0.59,1.6,1.62,1.6c0.41,0,0.84-0.11,1.12-0.35L463.27,347.58z M457.48,344.3v-0.85h-0.89v5.1h0.92V346
		c0-1.12,0.62-1.72,1.61-1.72c0.07,0,0.14,0,0.21,0.01v-0.89C458.45,343.4,457.81,343.7,457.48,344.3 M452.8,344.17
		c0.9,0,1.54,0.61,1.64,1.46h-3.27C451.26,344.77,451.91,344.17,452.8,344.17 M455.32,346.02c0-1.57-1.05-2.63-2.52-2.63
		c-1.47,0-2.56,1.09-2.56,2.6c0,1.52,1.1,2.61,2.74,2.61c0.85,0,1.55-0.29,2.01-0.83l-0.51-0.6c-0.38,0.41-0.88,0.62-1.47,0.62
		c-1.01,0-1.73-0.6-1.85-1.49h4.14C455.31,346.21,455.32,346.1,455.32,346.02 M446.77,347.79c-0.97,0-1.71-0.71-1.71-1.8
		c0-1.08,0.74-1.79,1.71-1.79c0.98,0,1.72,0.71,1.72,1.79C448.5,347.08,447.75,347.79,446.77,347.79 M446.85,343.4
		c-0.75,0-1.41,0.29-1.82,0.86v-0.81h-0.88v6.97h0.92v-2.64c0.42,0.55,1.06,0.83,1.78,0.83c1.49,0,2.58-1.04,2.58-2.61
		C449.43,344.43,448.34,343.4,446.85,343.4 M440.22,347.79c-0.98,0-1.72-0.71-1.72-1.8s0.74-1.79,1.72-1.79
		c0.98,0,1.71,0.7,1.71,1.79S441.2,347.79,440.22,347.79 M440.22,348.6c1.53,0,2.65-1.09,2.65-2.61s-1.11-2.6-2.65-2.6
		c-1.53,0-2.65,1.08-2.65,2.6S438.69,348.6,440.22,348.6 M435.09,344.3v-0.85h-0.88v5.1h0.92V346c0-1.12,0.62-1.72,1.61-1.72
		c0.07,0,0.13,0,0.21,0.01v-0.89C436.05,343.4,435.42,343.7,435.09,344.3 M430.17,345.67h-1.64v-3.02h1.64
		c1.23,0,1.88,0.55,1.88,1.51C432.05,345.12,431.4,345.67,430.17,345.67 M430.2,341.81h-2.63v6.74h0.96v-2.04h1.67
		c1.75,0,2.81-0.88,2.81-2.35C433.01,342.69,431.95,341.81,430.2,341.81"/>
	<path class="st8" d="M417.65,344.3v-0.86h-0.89v5.1h0.92V346c0-1.12,0.62-1.72,1.61-1.72c0.07,0,0.14,0,0.21,0.01v-0.89
		C418.61,343.4,417.97,343.7,417.65,344.3 M412.96,344.17c0.9,0,1.54,0.61,1.64,1.46h-3.27
		C411.42,344.77,412.08,344.17,412.96,344.17 M415.48,346.02c0-1.57-1.05-2.63-2.52-2.63s-2.56,1.09-2.56,2.6
		c0,1.52,1.1,2.61,2.74,2.61c0.85,0,1.55-0.29,2.01-0.83l-0.51-0.6c-0.38,0.41-0.88,0.62-1.47,0.62c-1.01,0-1.73-0.6-1.85-1.49h4.14
		C415.47,346.21,415.48,346.1,415.48,346.02 M409.64,347.58c-0.19,0.15-0.45,0.24-0.72,0.24c-0.51,0-0.8-0.31-0.8-0.86v-2.76h1.46
		v-0.76h-1.46v-1.12h-0.92v1.12h-0.87v0.76h0.87v2.8c0,1.03,0.59,1.6,1.62,1.6c0.41,0,0.84-0.12,1.12-0.36L409.64,347.58z
		 M405.78,347.58c-0.19,0.15-0.45,0.24-0.72,0.24c-0.51,0-0.8-0.31-0.8-0.86v-2.76h1.46v-0.76h-1.46v-1.12h-0.92v1.12h-0.87v0.76
		h0.87v2.8c0,1.03,0.59,1.6,1.62,1.6c0.41,0,0.84-0.12,1.12-0.36L405.78,347.58z M399.4,344.17c0.89,0,1.54,0.61,1.64,1.46h-3.27
		C397.86,344.77,398.52,344.17,399.4,344.17 M401.92,346.02c0-1.57-1.05-2.63-2.52-2.63c-1.47,0-2.56,1.09-2.56,2.6
		c0,1.52,1.1,2.61,2.74,2.61c0.85,0,1.55-0.29,2.01-0.83l-0.51-0.6c-0.38,0.41-0.88,0.62-1.47,0.62c-1.01,0-1.73-0.6-1.85-1.49h4.14
		C401.91,346.21,401.92,346.1,401.92,346.02 M393.43,348.62c1.78,0,2.61-0.88,2.61-1.91c0-2.47-4.08-1.44-4.08-3.09
		c0-0.59,0.49-1.07,1.64-1.07c0.6,0,1.26,0.17,1.85,0.55l0.32-0.77c-0.56-0.38-1.38-0.6-2.17-0.6c-1.77,0-2.58,0.88-2.58,1.93
		c0,2.5,4.08,1.46,4.08,3.11c0,0.59-0.5,1.04-1.67,1.04c-0.87,0-1.72-0.33-2.22-0.78l-0.36,0.75
		C391.39,348.27,392.4,348.62,393.43,348.62 M389.82,343.06l-4.31,1.7v0.83l4.31,1.7v-0.8l-3.42-1.32l3.42-1.32V343.06z"/>
	<path class="st7" d="M346.89,347.84c-1.04,0-1.6-0.61-1.6-1.3c0-0.74,0.64-1.31,1.55-1.31c0.94,0,1.54,0.51,1.54,1.3
		C348.38,347.33,347.76,347.84,346.89,347.84 M347,344.45c-0.84,0-1.55,0.31-1.94,0.88c-0.01-0.09-0.01-0.16-0.01-0.24
		c0-1.68,0.88-2.54,2.24-2.54c0.48,0,0.94,0.09,1.29,0.32l0.36-0.75c-0.43-0.27-1.04-0.39-1.67-0.39c-1.89,0-3.18,1.23-3.18,3.53
		c0,2.15,1.02,3.36,2.83,3.36c1.34,0,2.39-0.83,2.39-2.13C349.31,345.25,348.34,344.45,347,344.45"/>
	<path class="st7" d="M560.01,331.51v0.8l3.42,1.32l-3.42,1.32v0.8l4.31-1.7v-0.83L560.01,331.51z M558.29,329.8
		c-0.37,0-0.65,0.27-0.65,0.65c0,0.29,0.16,0.51,0.4,0.6l-0.36,1.43h0.61l0.46-1.35c0.12-0.36,0.15-0.5,0.15-0.68
		C558.91,330.08,558.66,329.8,558.29,329.8 M556.47,329.8c-0.37,0-0.65,0.27-0.65,0.65c0,0.29,0.16,0.51,0.4,0.6l-0.36,1.43h0.61
		l0.46-1.35c0.12-0.36,0.15-0.5,0.15-0.68C557.1,330.08,556.84,329.8,556.47,329.8 M552.86,332.75v-0.86h-0.88v5.1h0.92v-2.54
		c0-1.12,0.62-1.72,1.61-1.72c0.07,0,0.14,0,0.21,0.01v-0.89C553.82,331.85,553.19,332.15,552.86,332.75 M548.05,336.25
		c-0.98,0-1.72-0.71-1.72-1.8s0.74-1.79,1.72-1.79c0.98,0,1.71,0.7,1.71,1.79S549.03,336.25,548.05,336.25 M548.05,337.05
		c1.53,0,2.65-1.09,2.65-2.61s-1.11-2.6-2.65-2.6c-1.53,0-2.65,1.08-2.65,2.6S546.52,337.05,548.05,337.05 M544.63,336.03
		c-0.19,0.15-0.45,0.24-0.72,0.24c-0.51,0-0.8-0.31-0.8-0.86v-2.76h1.46v-0.76h-1.46v-1.12h-0.92v1.12h-0.87v0.76h0.87v2.8
		c0,1.03,0.59,1.6,1.62,1.6c0.41,0,0.84-0.12,1.12-0.36L544.63,336.03z M537.95,336.34c-0.7,0-1.13-0.32-1.13-0.83
		c0-0.43,0.26-0.79,1.17-0.79h1.43v0.71C539.19,336.02,538.64,336.34,537.95,336.34 M538.16,331.85c-0.82,0-1.58,0.23-2.11,0.65
		l0.38,0.69c0.39-0.34,1.01-0.55,1.62-0.55c0.91,0,1.37,0.45,1.37,1.23v0.18h-1.46c-1.52,0-2.05,0.67-2.05,1.49
		c0,0.89,0.73,1.5,1.89,1.5c0.8,0,1.37-0.27,1.67-0.73v0.67h0.88v-3.08C540.34,332.52,539.55,331.85,538.16,331.85 M533.03,337.05
		c0.91,0,1.67-0.39,2.08-1.1l-0.7-0.44c-0.33,0.5-0.83,0.73-1.39,0.73c-1,0-1.75-0.69-1.75-1.8c0-1.09,0.75-1.79,1.75-1.79
		c0.56,0,1.06,0.23,1.39,0.73l0.7-0.45c-0.4-0.71-1.16-1.09-2.08-1.09c-1.57,0-2.69,1.08-2.69,2.6S531.46,337.05,533.03,337.05
		 M528.12,336.99h0.92v-5.1h-0.92V336.99z M528.58,330.91c0.36,0,0.62-0.27,0.62-0.62c0-0.33-0.27-0.59-0.62-0.59
		c-0.36,0-0.62,0.27-0.62,0.61C527.96,330.65,528.23,330.91,528.58,330.91 M523.74,336.25c-0.98,0-1.72-0.71-1.72-1.8
		s0.74-1.79,1.72-1.79c0.97,0,1.71,0.7,1.71,1.79S524.71,336.25,523.74,336.25 M525.45,329.85v2.81c-0.42-0.55-1.06-0.82-1.78-0.82
		c-1.49,0-2.58,1.04-2.58,2.6c0,1.56,1.09,2.61,2.58,2.61c0.75,0,1.41-0.29,1.82-0.86v0.81h0.88v-7.14H525.45z M517.7,331.85
		c-0.81,0-1.46,0.3-1.84,0.82v-0.77h-0.89v5.1h0.92v-2.63c0-1.11,0.63-1.69,1.62-1.69c0.88,0,1.38,0.49,1.38,1.49v2.83h0.92v-2.93
		C519.81,332.56,518.94,331.85,517.7,331.85 M512.13,336.99h0.96v-6.73h-0.96V336.99z M510.22,331.9l-1.76,4.08l-1.78-4.08h-0.96
		l2.25,5.09l-0.16,0.36c-0.25,0.59-0.53,0.79-0.97,0.79c-0.35,0-0.66-0.14-0.91-0.38l-0.39,0.69c0.32,0.31,0.82,0.47,1.31,0.47
		c0.78,0,1.37-0.34,1.82-1.41l2.47-5.61H510.22z M503.35,337.05c1.36,0,2.2-0.59,2.2-1.51c0-1.98-3.23-1-3.23-2.2
		c0-0.4,0.39-0.7,1.2-0.7c0.5,0,1.01,0.11,1.47,0.4l0.39-0.73c-0.44-0.29-1.19-0.46-1.86-0.46c-1.31,0-2.13,0.61-2.13,1.53
		c0,2.03,3.22,1.04,3.22,2.18c0,0.43-0.36,0.69-1.21,0.69c-0.66,0-1.36-0.22-1.79-0.53l-0.39,0.73
		C501.66,336.79,502.5,337.05,503.35,337.05 M499.2,331.9v2.64c0,1.1-0.62,1.69-1.58,1.69c-0.88,0-1.38-0.5-1.38-1.5v-2.83h-0.92
		v2.93c0,1.5,0.87,2.22,2.19,2.22c0.72,0,1.36-0.3,1.73-0.83v0.77h0.88v-5.1H499.2z M491.4,336.22h-2.21v-2.24h2.21
		c1.07,0,1.65,0.35,1.65,1.13S492.47,336.22,491.4,336.22 M491.16,331.04c0.98,0,1.54,0.37,1.54,1.08c0,0.71-0.56,1.08-1.54,1.08
		h-1.97v-2.16H491.16z M492.75,333.5c0.53-0.26,0.9-0.77,0.9-1.5c0-1.09-0.86-1.74-2.41-1.74h-3.02v6.73h3.21
		c1.7,0,2.58-0.66,2.58-1.82C494.01,334.28,493.51,333.71,492.75,333.5 M485.34,338.86h0.86v-9.01h-0.86V338.86z M482.52,336.99
		h0.92v-7.14h-0.92V336.99z M478.41,336.34c-0.7,0-1.13-0.32-1.13-0.83c0-0.43,0.26-0.79,1.18-0.79h1.42v0.71
		C479.66,336.02,479.11,336.34,478.41,336.34 M478.63,331.85c-0.82,0-1.58,0.23-2.11,0.65l0.38,0.69c0.39-0.34,1.01-0.55,1.62-0.55
		c0.92,0,1.37,0.45,1.37,1.23v0.18h-1.46c-1.52,0-2.05,0.67-2.05,1.49c0,0.89,0.73,1.5,1.89,1.5c0.8,0,1.37-0.27,1.68-0.73v0.67
		h0.87v-3.08C480.81,332.52,480.02,331.85,478.63,331.85 M473.5,337.05c0.92,0,1.67-0.39,2.08-1.1l-0.7-0.44
		c-0.33,0.5-0.83,0.73-1.39,0.73c-1,0-1.75-0.69-1.75-1.8c0-1.09,0.75-1.79,1.75-1.79c0.56,0,1.06,0.23,1.39,0.73l0.7-0.45
		c-0.4-0.71-1.16-1.09-2.08-1.09c-1.57,0-2.69,1.08-2.69,2.6S471.93,337.05,473.5,337.05 M467.35,336.25c-0.98,0-1.72-0.71-1.72-1.8
		s0.74-1.79,1.72-1.79c0.98,0,1.71,0.7,1.71,1.79S468.33,336.25,467.35,336.25 M467.35,337.05c1.53,0,2.65-1.09,2.65-2.61
		s-1.12-2.6-2.65-2.6c-1.53,0-2.65,1.08-2.65,2.6S465.82,337.05,467.35,337.05 M462.48,336.99h0.92v-7.14h-0.92V336.99z
		 M460.52,329.8c-0.36,0-0.64,0.27-0.64,0.65c0,0.29,0.16,0.51,0.4,0.6l-0.36,1.43h0.61l0.46-1.35c0.12-0.36,0.15-0.5,0.15-0.68
		C461.15,330.08,460.89,329.8,460.52,329.8 M458.7,329.8c-0.36,0-0.64,0.27-0.64,0.65c0,0.29,0.16,0.51,0.4,0.6l-0.36,1.43h0.61
		l0.46-1.35c0.12-0.36,0.15-0.5,0.15-0.68C459.33,330.08,459.07,329.8,458.7,329.8 M452.64,335.15h4.31v-0.76h-4.31V335.15z
		 M452.64,332.87h4.31v-0.76h-4.31V332.87z M449.81,332.75v-0.86h-0.88v5.1h0.92v-2.54c0-1.12,0.62-1.72,1.61-1.72
		c0.07,0,0.13,0,0.21,0.01v-0.89C450.77,331.85,450.14,332.15,449.81,332.75 M445,336.25c-0.98,0-1.72-0.71-1.72-1.8
		s0.74-1.79,1.72-1.79c0.98,0,1.71,0.7,1.71,1.79S445.98,336.25,445,336.25 M445,337.05c1.53,0,2.65-1.09,2.65-2.61
		s-1.12-2.6-2.65-2.6c-1.53,0-2.66,1.08-2.66,2.6S443.47,337.05,445,337.05 M441.58,336.03c-0.19,0.15-0.45,0.24-0.72,0.24
		c-0.51,0-0.8-0.31-0.8-0.86v-2.76h1.46v-0.76h-1.46v-1.12h-0.92v1.12h-0.87v0.76h0.87v2.8c0,1.03,0.59,1.6,1.62,1.6
		c0.41,0,0.84-0.12,1.12-0.36L441.58,336.03z M435.67,337.05c0.91,0,1.68-0.39,2.08-1.1l-0.7-0.44c-0.33,0.5-0.83,0.73-1.38,0.73
		c-1,0-1.75-0.69-1.75-1.8c0-1.09,0.75-1.79,1.75-1.79c0.56,0,1.06,0.23,1.38,0.73l0.7-0.45c-0.4-0.71-1.17-1.09-2.08-1.09
		c-1.57,0-2.69,1.08-2.69,2.6S434.1,337.05,435.67,337.05 M429.64,332.63c0.9,0,1.54,0.61,1.64,1.46h-3.27
		C428.1,333.22,428.76,332.63,429.64,332.63 M432.16,334.47c0-1.57-1.05-2.63-2.52-2.63s-2.56,1.09-2.56,2.6
		c0,1.52,1.1,2.61,2.74,2.61c0.85,0,1.55-0.29,2.01-0.83l-0.51-0.6c-0.38,0.41-0.88,0.62-1.47,0.62c-1.01,0-1.73-0.6-1.85-1.49h4.14
		C432.15,334.67,432.16,334.55,432.16,334.47 M424.87,336.99h0.92v-7.14h-0.92V336.99z M421.07,332.63c0.9,0,1.54,0.61,1.64,1.46
		h-3.27C419.53,333.22,420.18,332.63,421.07,332.63 M423.59,334.47c0-1.57-1.05-2.63-2.52-2.63s-2.56,1.09-2.56,2.6
		c0,1.52,1.1,2.61,2.74,2.61c0.85,0,1.55-0.29,2.01-0.83l-0.51-0.6c-0.38,0.41-0.88,0.62-1.47,0.62c-1.01,0-1.73-0.6-1.85-1.49h4.14
		C423.58,334.67,423.59,334.55,423.59,334.47 M415.1,337.07c1.78,0,2.61-0.88,2.61-1.91c0-2.47-4.08-1.44-4.08-3.09
		c0-0.59,0.49-1.07,1.64-1.07c0.6,0,1.26,0.17,1.85,0.55l0.32-0.77c-0.56-0.38-1.38-0.6-2.17-0.6c-1.77,0-2.58,0.88-2.58,1.93
		c0,2.5,4.08,1.46,4.08,3.11c0,0.59-0.5,1.04-1.67,1.04c-0.87,0-1.72-0.33-2.22-0.78l-0.36,0.75
		C413.06,336.73,414.07,337.07,415.1,337.07"/>
	<path class="st8" d="M404.59,337.05c1.36,0,2.2-0.59,2.2-1.51c0-1.98-3.23-1-3.23-2.2c0-0.4,0.4-0.7,1.2-0.7
		c0.5,0,1.01,0.11,1.47,0.41l0.39-0.73c-0.44-0.29-1.19-0.46-1.86-0.46c-1.31,0-2.13,0.62-2.13,1.53c0,2.03,3.22,1.04,3.22,2.18
		c0,0.43-0.36,0.69-1.21,0.69c-0.67,0-1.36-0.22-1.79-0.53l-0.39,0.73C402.9,336.79,403.74,337.05,404.59,337.05 M399.32,332.63
		c0.89,0,1.54,0.61,1.64,1.46h-3.27C397.78,333.22,398.44,332.63,399.32,332.63 M401.84,334.47c0-1.57-1.05-2.63-2.52-2.63
		c-1.47,0-2.56,1.09-2.56,2.6c0,1.52,1.1,2.61,2.74,2.61c0.85,0,1.55-0.29,2.01-0.83l-0.51-0.6c-0.38,0.42-0.88,0.62-1.47,0.62
		c-1.01,0-1.73-0.6-1.85-1.49h4.14C401.83,334.67,401.84,334.55,401.84,334.47 M394.55,336.99h0.92v-7.14h-0.92V336.99z
		 M392.78,331.9l-1.76,4.08l-1.78-4.08h-0.96l2.25,5.09l-0.16,0.36c-0.25,0.59-0.53,0.79-0.97,0.79c-0.35,0-0.66-0.13-0.91-0.38
		l-0.4,0.69c0.32,0.31,0.82,0.47,1.31,0.47c0.78,0,1.37-0.34,1.82-1.41l2.47-5.61H392.78z M387.86,336.03
		c-0.19,0.15-0.45,0.24-0.72,0.24c-0.51,0-0.8-0.31-0.8-0.86v-2.76h1.46v-0.76h-1.46v-1.12h-0.92v1.12h-0.87v0.76h0.87v2.8
		c0,1.03,0.59,1.6,1.61,1.6c0.41,0,0.84-0.12,1.12-0.36L387.86,336.03z M381.4,337.07c1.78,0,2.61-0.88,2.61-1.91
		c0-2.47-4.08-1.44-4.08-3.09c0-0.59,0.49-1.07,1.64-1.07c0.6,0,1.26,0.17,1.85,0.55l0.32-0.77c-0.56-0.38-1.38-0.6-2.17-0.6
		c-1.77,0-2.58,0.88-2.58,1.93c0,2.5,4.08,1.46,4.08,3.11c0,0.59-0.5,1.04-1.67,1.04c-0.87,0-1.72-0.33-2.22-0.78l-0.36,0.75
		C379.36,336.73,380.37,337.07,381.4,337.07 M377.79,331.51l-4.31,1.7v0.83l4.31,1.7v-0.8l-3.42-1.32l3.42-1.32V331.51z"/>
	<path class="st7" d="M346.44,332.94h-0.75l0.18-1.85h2.99v-0.84h-3.8l-0.36,3.52h1.53c1.56,0,2.04,0.47,2.04,1.23
		c0,0.73-0.58,1.2-1.6,1.2c-0.82,0-1.57-0.3-2.02-0.72l-0.44,0.76c0.58,0.51,1.52,0.82,2.47,0.82c1.72,0,2.55-0.93,2.55-2.1
		C349.23,333.78,348.45,332.94,346.44,332.94"/>
	<path class="st7" d="M637.73,325.45h0.92v-5.1h-0.92V325.45z M638.19,319.36c0.36,0,0.62-0.27,0.62-0.62
		c0-0.33-0.27-0.59-0.62-0.59c-0.36,0-0.62,0.27-0.62,0.6C637.56,319.1,637.83,319.36,638.19,319.36 M633.79,324.7
		c-0.97,0-1.71-0.71-1.71-1.8c0-1.09,0.74-1.79,1.71-1.79c0.98,0,1.72,0.7,1.72,1.79C635.51,323.98,634.77,324.7,633.79,324.7
		 M633.87,320.3c-0.72,0-1.36,0.27-1.78,0.82v-2.81h-0.92v7.14h0.89v-0.81c0.41,0.58,1.07,0.86,1.82,0.86
		c1.49,0,2.58-1.05,2.58-2.61S635.36,320.3,633.87,320.3 M627.05,324.79c-0.7,0-1.13-0.32-1.13-0.83c0-0.43,0.26-0.79,1.18-0.79
		h1.42v0.71C628.29,324.48,627.75,324.79,627.05,324.79 M627.26,320.3c-0.82,0-1.58,0.23-2.11,0.65l0.39,0.69
		c0.39-0.34,1.01-0.55,1.62-0.55c0.92,0,1.37,0.45,1.37,1.23v0.18h-1.46c-1.52,0-2.05,0.67-2.05,1.49c0,0.89,0.73,1.5,1.89,1.5
		c0.8,0,1.37-0.27,1.68-0.73v0.67h0.87v-3.08C629.45,320.97,628.66,320.3,627.26,320.3 M622.05,325.5c1.36,0,2.2-0.59,2.2-1.51
		c0-1.98-3.23-1-3.23-2.2c0-0.4,0.39-0.7,1.2-0.7c0.5,0,1.01,0.11,1.47,0.4l0.39-0.73c-0.44-0.29-1.19-0.46-1.86-0.46
		c-1.31,0-2.13,0.61-2.13,1.53c0,2.03,3.22,1.04,3.22,2.18c0,0.43-0.36,0.69-1.21,0.69c-0.66,0-1.36-0.22-1.79-0.53l-0.39,0.73
		C620.36,325.24,621.2,325.5,622.05,325.5 M616.48,324.79c-0.7,0-1.13-0.32-1.13-0.83c0-0.43,0.26-0.79,1.17-0.79h1.42v0.71
		C617.72,324.48,617.17,324.79,616.48,324.79 M616.69,320.3c-0.82,0-1.58,0.23-2.11,0.65l0.38,0.69c0.39-0.34,1.01-0.55,1.62-0.55
		c0.92,0,1.37,0.45,1.37,1.23v0.18h-1.46c-1.52,0-2.05,0.67-2.05,1.49c0,0.89,0.73,1.5,1.88,1.5c0.8,0,1.37-0.27,1.68-0.73v0.67
		h0.88v-3.08C618.87,320.97,618.08,320.3,616.69,320.3 M613.26,318.71l-1.86,5.51l-1.86-5.51h-0.89l-1.9,5.48l-1.82-5.48h-0.99
		l2.25,6.74h1.03l1.84-5.38l1.84,5.38h1.01l2.25-6.74H613.26z M603.12,324.48c-0.19,0.15-0.45,0.24-0.72,0.24
		c-0.51,0-0.8-0.31-0.8-0.86v-2.76h1.46v-0.76h-1.46v-1.12h-0.92v1.12h-0.87v0.76h0.87v2.8c0,1.03,0.59,1.6,1.61,1.6
		c0.41,0,0.84-0.11,1.12-0.35L603.12,324.48z M596.74,321.08c0.9,0,1.54,0.61,1.64,1.46h-3.27
		C595.2,321.67,595.85,321.08,596.74,321.08 M599.26,322.93c0-1.57-1.05-2.63-2.52-2.63s-2.56,1.09-2.56,2.6
		c0,1.52,1.1,2.61,2.74,2.61c0.85,0,1.55-0.29,2.01-0.83l-0.51-0.6c-0.38,0.41-0.88,0.62-1.47,0.62c-1.01,0-1.73-0.6-1.85-1.49h4.14
		C599.25,323.12,599.26,323,599.26,322.93 M591.96,325.45h0.92v-7.14h-0.92V325.45z M589.28,325.45h0.92v-7.14h-0.92V325.45z
		 M585.17,324.79c-0.7,0-1.13-0.32-1.13-0.83c0-0.43,0.26-0.79,1.17-0.79h1.42v0.71C586.41,324.48,585.86,324.79,585.17,324.79
		 M585.38,320.3c-0.82,0-1.58,0.23-2.11,0.65l0.38,0.69c0.39-0.34,1.01-0.55,1.62-0.55c0.91,0,1.37,0.45,1.37,1.23v0.18h-1.46
		c-1.52,0-2.05,0.67-2.05,1.49c0,0.89,0.73,1.5,1.89,1.5c0.8,0,1.37-0.27,1.68-0.73v0.67h0.87v-3.08
		C587.57,320.97,586.78,320.3,585.38,320.3 M581.96,318.71l-1.86,5.51l-1.86-5.51h-0.89l-1.9,5.48l-1.82-5.48h-0.99l2.25,6.74h1.03
		l1.84-5.38l1.84,5.38h1.01l2.25-6.74H581.96z M571.48,325.5c0.35,0,0.63-0.28,0.63-0.66c0-0.38-0.29-0.65-0.63-0.65
		c-0.36,0-0.65,0.27-0.65,0.65C570.82,325.23,571.12,325.5,571.48,325.5 M571.48,321.62c0.35,0,0.63-0.28,0.63-0.66
		c0-0.38-0.29-0.65-0.63-0.65c-0.36,0-0.65,0.27-0.65,0.65C570.82,321.34,571.12,321.62,571.48,321.62 M567.45,321.08
		c0.9,0,1.54,0.61,1.64,1.46h-3.27C565.91,321.67,566.57,321.08,567.45,321.08 M569.97,322.93c0-1.57-1.05-2.63-2.52-2.63
		c-1.47,0-2.56,1.09-2.56,2.6c0,1.52,1.1,2.61,2.74,2.61c0.85,0,1.55-0.29,2.01-0.83l-0.51-0.6c-0.38,0.41-0.88,0.62-1.47,0.62
		c-1.01,0-1.73-0.6-1.85-1.49h4.14C569.96,323.12,569.97,323,569.97,322.93 M562.17,325.5c0.91,0,1.67-0.38,2.08-1.1l-0.7-0.44
		c-0.33,0.5-0.83,0.73-1.39,0.73c-1,0-1.75-0.69-1.75-1.8c0-1.09,0.75-1.79,1.75-1.79c0.56,0,1.06,0.23,1.39,0.73l0.7-0.45
		c-0.4-0.71-1.16-1.09-2.08-1.09c-1.57,0-2.69,1.08-2.69,2.6S560.6,325.5,562.17,325.5 M555.81,324.79c-0.7,0-1.13-0.32-1.13-0.83
		c0-0.43,0.26-0.79,1.17-0.79h1.42v0.71C557.05,324.48,556.5,324.79,555.81,324.79 M556.02,320.3c-0.82,0-1.58,0.23-2.11,0.65
		l0.39,0.69c0.39-0.34,1.01-0.55,1.62-0.55c0.91,0,1.37,0.45,1.37,1.23v0.18h-1.46c-1.52,0-2.05,0.67-2.05,1.49
		c0,0.89,0.73,1.5,1.89,1.5c0.8,0,1.37-0.27,1.68-0.73v0.67h0.87v-3.08C558.2,320.97,557.42,320.3,556.02,320.3 M550.27,324.7
		c-0.97,0-1.71-0.71-1.71-1.8c0-1.08,0.74-1.79,1.71-1.79c0.98,0,1.72,0.71,1.72,1.79C552,323.98,551.26,324.7,550.27,324.7
		 M550.35,320.3c-0.75,0-1.41,0.29-1.82,0.86v-0.81h-0.88v6.97h0.92v-2.64c0.42,0.55,1.06,0.83,1.78,0.83
		c1.49,0,2.58-1.04,2.58-2.61C552.93,321.34,551.84,320.3,550.35,320.3 M544.29,325.5c1.36,0,2.2-0.59,2.2-1.51
		c0-1.98-3.23-1-3.23-2.2c0-0.4,0.39-0.7,1.2-0.7c0.5,0,1.01,0.11,1.47,0.4l0.39-0.73c-0.44-0.29-1.19-0.46-1.86-0.46
		c-1.31,0-2.13,0.61-2.13,1.53c0,2.03,3.22,1.04,3.22,2.18c0,0.43-0.36,0.69-1.21,0.69c-0.66,0-1.36-0.22-1.79-0.53l-0.38,0.73
		C542.6,325.24,543.44,325.5,544.29,325.5 M539.02,321.08c0.9,0,1.54,0.61,1.64,1.46h-3.27
		C537.48,321.67,538.14,321.08,539.02,321.08 M541.55,322.93c0-1.57-1.05-2.63-2.52-2.63c-1.47,0-2.56,1.09-2.56,2.6
		c0,1.52,1.09,2.61,2.74,2.61c0.85,0,1.55-0.29,2.01-0.83l-0.51-0.6c-0.38,0.41-0.88,0.62-1.47,0.62c-1.01,0-1.73-0.6-1.85-1.49
		h4.14C541.54,323.12,541.55,323,541.55,322.93 M533.12,320.3c-0.87,0-1.58,0.36-1.96,0.94c-0.34-0.63-0.99-0.94-1.77-0.94
		c-0.77,0-1.4,0.29-1.76,0.81v-0.76h-0.88v5.1h0.92v-2.63c0-1.11,0.61-1.69,1.53-1.69c0.84,0,1.32,0.49,1.32,1.49v2.83h0.92v-2.63
		c0-1.11,0.61-1.69,1.53-1.69c0.84,0,1.32,0.49,1.32,1.49v2.83h0.92v-2.94C535.2,321.01,534.36,320.3,533.12,320.3 M522.63,324.79
		c-0.7,0-1.13-0.32-1.13-0.83c0-0.43,0.26-0.79,1.17-0.79h1.43v0.71C523.87,324.48,523.32,324.79,522.63,324.79 M522.84,320.3
		c-0.82,0-1.58,0.23-2.11,0.65l0.38,0.69c0.39-0.34,1.01-0.55,1.62-0.55c0.91,0,1.37,0.45,1.37,1.23v0.18h-1.46
		c-1.52,0-2.05,0.67-2.05,1.49c0,0.89,0.73,1.5,1.89,1.5c0.8,0,1.37-0.27,1.67-0.73v0.67h0.88v-3.08
		C525.02,320.97,524.23,320.3,522.84,320.3 M517.15,320.3c-0.81,0-1.46,0.3-1.84,0.82v-0.77h-0.88v5.1h0.92v-2.63
		c0-1.11,0.64-1.69,1.62-1.69c0.88,0,1.38,0.49,1.38,1.49v2.83h0.92v-2.94C519.27,321.01,518.39,320.3,517.15,320.3 M510.41,323.2
		H513v-0.8h-2.59V323.2z M507.77,321.2v-0.86h-0.89v5.1h0.92v-2.54c0-1.12,0.62-1.72,1.61-1.72c0.07,0,0.14,0,0.21,0.01v-0.89
		C508.73,320.3,508.09,320.61,507.77,321.2 M504.2,325.45h0.92v-7.14h-0.92V325.45z M500.99,325.5c0.92,0,1.67-0.38,2.08-1.1
		l-0.7-0.44c-0.33,0.5-0.83,0.73-1.39,0.73c-1,0-1.75-0.69-1.75-1.8c0-1.09,0.75-1.79,1.75-1.79c0.56,0,1.06,0.23,1.39,0.73
		l0.7-0.45c-0.4-0.71-1.16-1.09-2.08-1.09c-1.57,0-2.69,1.08-2.69,2.6S499.42,325.5,500.99,325.5 M497.07,318.25
		c-0.36,0-0.64,0.27-0.64,0.65c0,0.29,0.16,0.51,0.4,0.6l-0.36,1.43h0.61l0.46-1.35c0.12-0.36,0.15-0.5,0.15-0.68
		C497.7,318.53,497.44,318.25,497.07,318.25 M495.26,318.25c-0.36,0-0.64,0.27-0.64,0.65c0,0.29,0.16,0.51,0.4,0.6l-0.36,1.43h0.61
		l0.46-1.35c0.12-0.36,0.15-0.5,0.15-0.68C495.88,318.53,495.62,318.25,495.26,318.25 M489.19,323.6h4.31v-0.76h-4.31V323.6z
		 M489.19,321.32h4.31v-0.76h-4.31V321.32z M486.07,325.5c1.36,0,2.2-0.59,2.2-1.51c0-1.98-3.23-1-3.23-2.2c0-0.4,0.39-0.7,1.2-0.7
		c0.5,0,1.01,0.11,1.47,0.4l0.39-0.73c-0.44-0.29-1.19-0.46-1.86-0.46c-1.31,0-2.13,0.61-2.13,1.53c0,2.03,3.22,1.04,3.22,2.18
		c0,0.43-0.36,0.69-1.21,0.69c-0.66,0-1.36-0.22-1.79-0.53l-0.39,0.73C484.38,325.24,485.22,325.5,486.07,325.5 M481.92,325.45h0.92
		v-7.14h-0.92V325.45z M477.99,324.7c-0.98,0-1.72-0.71-1.72-1.8c0-1.09,0.74-1.79,1.72-1.79c0.98,0,1.71,0.7,1.71,1.79
		C479.7,323.98,478.97,324.7,477.99,324.7 M477.99,325.5c1.53,0,2.65-1.09,2.65-2.61s-1.12-2.6-2.65-2.6c-1.53,0-2.66,1.08-2.66,2.6
		S476.46,325.5,477.99,325.5 M472.86,321.2v-0.86h-0.88v5.1h0.92v-2.54c0-1.12,0.62-1.72,1.61-1.72c0.07,0,0.14,0,0.21,0.01v-0.89
		C473.82,320.3,473.19,320.61,472.86,321.2 M470.57,324.48c-0.19,0.15-0.45,0.24-0.72,0.24c-0.51,0-0.8-0.31-0.8-0.86v-2.76h1.46
		v-0.76h-1.46v-1.12h-0.92v1.12h-0.87v0.76h0.87v2.8c0,1.03,0.59,1.6,1.62,1.6c0.41,0,0.84-0.11,1.12-0.35L470.57,324.48z
		 M464.16,320.3c-0.81,0-1.46,0.3-1.84,0.82v-0.77h-0.88v5.1h0.92v-2.63c0-1.11,0.64-1.69,1.62-1.69c0.88,0,1.38,0.49,1.38,1.49
		v2.83h0.92v-2.94C466.28,321.01,465.4,320.3,464.16,320.3 M457.51,324.7c-0.98,0-1.72-0.71-1.72-1.8c0-1.09,0.74-1.79,1.72-1.79
		c0.98,0,1.71,0.7,1.71,1.79C459.23,323.98,458.49,324.7,457.51,324.7 M457.51,325.5c1.53,0,2.65-1.09,2.65-2.61s-1.12-2.6-2.65-2.6
		c-1.53,0-2.66,1.08-2.66,2.6S455.98,325.5,457.51,325.5 M452.13,325.5c0.92,0,1.67-0.38,2.08-1.1l-0.7-0.44
		c-0.33,0.5-0.83,0.73-1.39,0.73c-1,0-1.75-0.69-1.75-1.8c0-1.09,0.75-1.79,1.75-1.79c0.56,0,1.06,0.23,1.39,0.73l0.7-0.45
		c-0.4-0.71-1.16-1.09-2.08-1.09c-1.57,0-2.69,1.08-2.69,2.6S450.56,325.5,452.13,325.5 M445.36,325.5c0.35,0,0.63-0.28,0.63-0.66
		c0-0.38-0.29-0.65-0.63-0.65c-0.36,0-0.65,0.27-0.65,0.65C444.7,325.23,445,325.5,445.36,325.5 M445.36,321.62
		c0.35,0,0.63-0.28,0.63-0.66c0-0.38-0.29-0.65-0.63-0.65c-0.36,0-0.65,0.27-0.65,0.65C444.7,321.34,445,321.62,445.36,321.62
		 M439.19,325.5c1.36,0,2.2-0.59,2.2-1.51c0-1.98-3.23-1-3.23-2.2c0-0.4,0.39-0.7,1.2-0.7c0.5,0,1.01,0.11,1.47,0.4l0.39-0.73
		c-0.44-0.29-1.19-0.46-1.86-0.46c-1.31,0-2.13,0.61-2.13,1.53c0,2.03,3.22,1.04,3.22,2.18c0,0.43-0.36,0.69-1.21,0.69
		c-0.66,0-1.36-0.22-1.79-0.53l-0.38,0.73C437.5,325.24,438.34,325.5,439.19,325.5 M433.9,320.3c-0.81,0-1.46,0.3-1.84,0.82v-0.77
		h-0.88v5.1h0.92v-2.63c0-1.11,0.64-1.69,1.62-1.69c0.88,0,1.38,0.49,1.38,1.49v2.83h0.92v-2.94
		C436.01,321.01,435.14,320.3,433.9,320.3 M428.49,325.45h0.92v-7.14h-0.92V325.45z M424.7,320.3c-0.87,0-1.58,0.36-1.96,0.94
		c-0.34-0.63-0.99-0.94-1.77-0.94c-0.77,0-1.4,0.29-1.76,0.81v-0.76h-0.88v5.1h0.92v-2.63c0-1.11,0.61-1.69,1.53-1.69
		c0.84,0,1.32,0.49,1.32,1.49v2.83h0.92v-2.63c0-1.11,0.61-1.69,1.53-1.69c0.84,0,1.32,0.49,1.32,1.49v2.83h0.92v-2.94
		C426.78,321.01,425.94,320.3,424.7,320.3 M417.3,325.45l-2.03-2.61l1.92-2.49h-1.01l-1.39,1.84l-1.4-1.84h-1.03l1.92,2.49
		l-2.01,2.61h1.03l1.49-1.95l1.47,1.95H417.3z M349.46,322.96h-1.28v-1.46h-0.9v1.46h-2.59l3.3-4.25h-1.04l-3.45,4.41v0.67h3.74
		v1.66h0.93v-1.66h1.28V322.96z"/>
	<path class="st7" d="M620.94,313.9h0.92v-5.1h-0.92V313.9z M621.4,307.82c0.37,0,0.62-0.27,0.62-0.61c0-0.33-0.27-0.59-0.62-0.59
		c-0.36,0-0.62,0.27-0.62,0.61C620.78,307.56,621.05,307.82,621.4,307.82 M617,313.15c-0.97,0-1.71-0.71-1.71-1.8
		c0-1.09,0.74-1.79,1.71-1.79c0.98,0,1.72,0.7,1.72,1.79C618.73,312.44,617.99,313.15,617,313.15 M617.08,308.75
		c-0.72,0-1.36,0.27-1.78,0.82v-2.81h-0.92v7.14h0.88v-0.81c0.41,0.58,1.07,0.86,1.82,0.86c1.49,0,2.58-1.05,2.58-2.61
		C619.66,309.79,618.57,308.75,617.08,308.75 M610.27,313.24c-0.7,0-1.13-0.32-1.13-0.83c0-0.43,0.26-0.79,1.17-0.79h1.42v0.71
		C611.51,312.93,610.96,313.24,610.27,313.24 M610.48,308.75c-0.82,0-1.58,0.23-2.11,0.65l0.39,0.69c0.39-0.34,1.01-0.55,1.62-0.55
		c0.91,0,1.37,0.45,1.37,1.23v0.18h-1.46c-1.52,0-2.05,0.67-2.05,1.49c0,0.89,0.73,1.5,1.89,1.5c0.8,0,1.37-0.27,1.67-0.73v0.67
		h0.88v-3.08C612.66,309.42,611.88,308.75,610.48,308.75 M605.26,313.96c1.36,0,2.2-0.59,2.2-1.51c0-1.98-3.23-1-3.23-2.2
		c0-0.4,0.4-0.7,1.2-0.7c0.5,0,1.01,0.11,1.47,0.4l0.39-0.73c-0.44-0.29-1.19-0.46-1.86-0.46c-1.31,0-2.13,0.62-2.13,1.53
		c0,2.03,3.22,1.04,3.22,2.19c0,0.43-0.36,0.69-1.21,0.69c-0.66,0-1.36-0.22-1.79-0.53l-0.39,0.73
		C603.58,313.7,604.42,313.96,605.26,313.96 M599.69,313.24c-0.7,0-1.13-0.32-1.13-0.83c0-0.43,0.26-0.79,1.17-0.79h1.42v0.71
		C600.93,312.93,600.39,313.24,599.69,313.24 M599.9,308.75c-0.82,0-1.58,0.23-2.11,0.65l0.38,0.69c0.39-0.34,1.01-0.55,1.62-0.55
		c0.92,0,1.37,0.45,1.37,1.23v0.18h-1.46c-1.52,0-2.05,0.67-2.05,1.49c0,0.89,0.73,1.5,1.88,1.5c0.8,0,1.37-0.27,1.68-0.73v0.67
		h0.87v-3.08C602.09,309.42,601.3,308.75,599.9,308.75 M596.48,307.16l-1.86,5.5l-1.86-5.5h-0.89l-1.9,5.48l-1.82-5.48h-0.99
		l2.25,6.73h1.03l1.84-5.38l1.84,5.38h1.01l2.25-6.73H596.48z M586.33,312.94c-0.19,0.15-0.45,0.24-0.72,0.24
		c-0.51,0-0.8-0.31-0.8-0.86v-2.76h1.46v-0.76h-1.46v-1.12h-0.92v1.12h-0.87v0.76h0.87v2.8c0,1.03,0.59,1.6,1.62,1.6
		c0.41,0,0.84-0.12,1.12-0.36L586.33,312.94z M579.95,309.53c0.9,0,1.54,0.61,1.64,1.46h-3.27
		C578.41,310.13,579.07,309.53,579.95,309.53 M582.47,311.38c0-1.57-1.05-2.63-2.52-2.63c-1.47,0-2.56,1.09-2.56,2.6
		c0,1.52,1.1,2.61,2.74,2.61c0.85,0,1.55-0.29,2.01-0.83l-0.51-0.6c-0.38,0.41-0.88,0.62-1.47,0.62c-1.01,0-1.73-0.6-1.85-1.49h4.14
		C582.46,311.57,582.47,311.45,582.47,311.38 M575.18,313.9h0.92v-7.14h-0.92V313.9z M572.5,313.9h0.92v-7.14h-0.92V313.9z
		 M568.39,313.24c-0.7,0-1.13-0.32-1.13-0.83c0-0.43,0.26-0.79,1.17-0.79h1.42v0.71C569.63,312.93,569.08,313.24,568.39,313.24
		 M568.6,308.75c-0.82,0-1.58,0.23-2.11,0.65l0.39,0.69c0.39-0.34,1.01-0.55,1.62-0.55c0.91,0,1.37,0.45,1.37,1.23v0.18h-1.46
		c-1.52,0-2.05,0.67-2.05,1.49c0,0.89,0.73,1.5,1.89,1.5c0.8,0,1.37-0.27,1.68-0.73v0.67h0.87v-3.08
		C570.78,309.42,569.99,308.75,568.6,308.75 M565.17,307.16l-1.86,5.5l-1.86-5.5h-0.89l-1.9,5.48l-1.82-5.48h-0.99l2.25,6.73h1.03
		l1.84-5.38l1.84,5.38h1.01l2.25-6.73H565.17z M554.69,313.96c0.35,0,0.63-0.28,0.63-0.66c0-0.38-0.29-0.65-0.63-0.65
		c-0.36,0-0.65,0.27-0.65,0.65C554.04,313.68,554.34,313.96,554.69,313.96 M554.69,310.07c0.35,0,0.63-0.28,0.63-0.66
		c0-0.38-0.29-0.65-0.63-0.65c-0.36,0-0.65,0.27-0.65,0.65C554.04,309.79,554.34,310.07,554.69,310.07 M550.67,309.53
		c0.9,0,1.54,0.61,1.64,1.46h-3.27C549.13,310.13,549.78,309.53,550.67,309.53 M553.19,311.38c0-1.57-1.05-2.63-2.52-2.63
		c-1.47,0-2.56,1.09-2.56,2.6c0,1.52,1.1,2.61,2.74,2.61c0.85,0,1.55-0.29,2.01-0.83l-0.51-0.6c-0.38,0.41-0.88,0.62-1.47,0.62
		c-1.01,0-1.73-0.6-1.85-1.49h4.14C553.18,311.57,553.19,311.45,553.19,311.38 M545.38,313.96c0.91,0,1.67-0.39,2.08-1.1l-0.7-0.44
		c-0.33,0.5-0.83,0.73-1.39,0.73c-1,0-1.75-0.69-1.75-1.8c0-1.09,0.75-1.79,1.75-1.79c0.56,0,1.06,0.23,1.39,0.73l0.7-0.45
		c-0.4-0.71-1.16-1.09-2.08-1.09c-1.57,0-2.69,1.08-2.69,2.6S543.82,313.96,545.38,313.96 M539.02,313.24
		c-0.7,0-1.13-0.32-1.13-0.83c0-0.43,0.26-0.79,1.17-0.79h1.42v0.71C540.27,312.93,539.72,313.24,539.02,313.24 M539.24,308.75
		c-0.82,0-1.58,0.23-2.11,0.65l0.39,0.69c0.39-0.34,1.01-0.55,1.62-0.55c0.91,0,1.37,0.45,1.37,1.23v0.18h-1.46
		c-1.52,0-2.05,0.67-2.05,1.49c0,0.89,0.73,1.5,1.89,1.5c0.8,0,1.37-0.27,1.68-0.73v0.67h0.88v-3.08
		C541.42,309.42,540.63,308.75,539.24,308.75 M533.49,313.15c-0.97,0-1.71-0.71-1.71-1.8c0-1.08,0.74-1.79,1.71-1.79
		c0.98,0,1.72,0.71,1.72,1.79C535.21,312.44,534.47,313.15,533.49,313.15 M533.57,308.75c-0.75,0-1.41,0.29-1.82,0.86v-0.81h-0.88
		v6.97h0.92v-2.64c0.42,0.55,1.06,0.83,1.78,0.83c1.49,0,2.58-1.04,2.58-2.61C536.15,309.79,535.06,308.75,533.57,308.75
		 M527.5,313.96c1.36,0,2.2-0.59,2.2-1.51c0-1.98-3.23-1-3.23-2.2c0-0.4,0.4-0.7,1.2-0.7c0.5,0,1.01,0.11,1.47,0.4l0.39-0.73
		c-0.44-0.29-1.19-0.46-1.86-0.46c-1.31,0-2.13,0.62-2.13,1.53c0,2.03,3.22,1.04,3.22,2.19c0,0.43-0.36,0.69-1.21,0.69
		c-0.66,0-1.36-0.22-1.79-0.53l-0.39,0.73C525.82,313.7,526.66,313.96,527.5,313.96 M522.24,309.53c0.9,0,1.54,0.61,1.64,1.46h-3.27
		C520.7,310.13,521.35,309.53,522.24,309.53 M524.76,311.38c0-1.57-1.05-2.63-2.52-2.63c-1.47,0-2.56,1.09-2.56,2.6
		c0,1.52,1.1,2.61,2.74,2.61c0.85,0,1.55-0.29,2.01-0.83l-0.51-0.6c-0.38,0.41-0.88,0.62-1.47,0.62c-1.01,0-1.73-0.6-1.85-1.49h4.14
		C524.75,311.57,524.76,311.45,524.76,311.38 M516.33,308.75c-0.87,0-1.58,0.37-1.96,0.94c-0.34-0.63-0.99-0.94-1.77-0.94
		c-0.77,0-1.4,0.29-1.76,0.81v-0.76h-0.89v5.1h0.92v-2.63c0-1.11,0.61-1.69,1.53-1.69c0.84,0,1.32,0.49,1.32,1.49v2.83h0.92v-2.63
		c0-1.11,0.61-1.69,1.53-1.69c0.84,0,1.32,0.49,1.32,1.49v2.83h0.92v-2.93C518.42,309.46,517.57,308.75,516.33,308.75
		 M505.84,313.24c-0.7,0-1.13-0.32-1.13-0.83c0-0.43,0.26-0.79,1.18-0.79h1.42v0.71C507.08,312.93,506.54,313.24,505.84,313.24
		 M506.05,308.75c-0.82,0-1.58,0.23-2.11,0.65l0.38,0.69c0.4-0.34,1.01-0.55,1.62-0.55c0.92,0,1.37,0.45,1.37,1.23v0.18h-1.46
		c-1.52,0-2.05,0.67-2.05,1.49c0,0.89,0.73,1.5,1.89,1.5c0.8,0,1.37-0.27,1.68-0.73v0.67h0.87v-3.08
		C508.24,309.42,507.45,308.75,506.05,308.75 M500.37,308.75c-0.81,0-1.46,0.3-1.84,0.82v-0.77h-0.88v5.1h0.92v-2.63
		c0-1.11,0.64-1.69,1.62-1.69c0.88,0,1.38,0.49,1.38,1.49v2.83h0.92v-2.93C502.48,309.46,501.61,308.75,500.37,308.75
		 M493.63,311.66h2.59v-0.8h-2.59V311.66z M490.98,309.65v-0.86h-0.88v5.1h0.92v-2.54c0-1.12,0.62-1.72,1.61-1.72
		c0.07,0,0.13,0,0.21,0.01v-0.89C491.94,308.75,491.31,309.06,490.98,309.65 M487.41,313.9h0.92v-7.14h-0.92V313.9z M484.21,313.96
		c0.91,0,1.67-0.39,2.08-1.1l-0.7-0.44c-0.33,0.5-0.83,0.73-1.39,0.73c-1,0-1.75-0.69-1.75-1.8c0-1.09,0.75-1.79,1.75-1.79
		c0.56,0,1.06,0.23,1.39,0.73l0.7-0.45c-0.4-0.71-1.16-1.09-2.08-1.09c-1.57,0-2.69,1.08-2.69,2.6S482.64,313.96,484.21,313.96
		 M480.29,306.7c-0.37,0-0.65,0.27-0.65,0.65c0,0.29,0.16,0.51,0.4,0.6l-0.36,1.43h0.61l0.46-1.35c0.12-0.36,0.15-0.5,0.15-0.68
		C480.92,306.98,480.66,306.7,480.29,306.7 M478.47,306.7c-0.37,0-0.65,0.27-0.65,0.65c0,0.29,0.16,0.51,0.4,0.6l-0.35,1.43h0.6
		l0.46-1.35c0.12-0.36,0.15-0.5,0.15-0.68C479.1,306.98,478.84,306.7,478.47,306.7 M472.41,312.05h4.31v-0.76h-4.31V312.05z
		 M472.41,309.77h4.31v-0.76h-4.31V309.77z M469.96,313.9h0.92v-7.14h-0.92V313.9z M465.85,313.24c-0.7,0-1.13-0.32-1.13-0.83
		c0-0.43,0.26-0.79,1.18-0.79h1.42v0.71C467.09,312.93,466.54,313.24,465.85,313.24 M466.06,308.75c-0.82,0-1.58,0.23-2.11,0.65
		l0.38,0.69c0.39-0.34,1.01-0.55,1.62-0.55c0.92,0,1.37,0.45,1.37,1.23v0.18h-1.46c-1.52,0-2.05,0.67-2.05,1.49
		c0,0.89,0.73,1.5,1.89,1.5c0.8,0,1.37-0.27,1.68-0.73v0.67h0.87v-3.08C468.24,309.42,467.45,308.75,466.06,308.75 M460.93,313.96
		c0.92,0,1.67-0.39,2.08-1.1l-0.7-0.44c-0.33,0.5-0.83,0.73-1.39,0.73c-1,0-1.75-0.69-1.75-1.8c0-1.09,0.75-1.79,1.75-1.79
		c0.56,0,1.06,0.23,1.39,0.73l0.7-0.45c-0.4-0.71-1.16-1.09-2.08-1.09c-1.57,0-2.69,1.08-2.69,2.6S459.36,313.96,460.93,313.96
		 M454.78,313.15c-0.98,0-1.72-0.71-1.72-1.8c0-1.09,0.74-1.79,1.72-1.79c0.98,0,1.71,0.7,1.71,1.79
		C456.49,312.44,455.76,313.15,454.78,313.15 M454.78,313.96c1.53,0,2.65-1.09,2.65-2.61s-1.12-2.6-2.65-2.6
		c-1.53,0-2.65,1.08-2.65,2.6S453.25,313.96,454.78,313.96 M449.91,313.9h0.92v-7.14h-0.92V313.9z M445.36,313.96
		c0.35,0,0.63-0.28,0.63-0.66c0-0.38-0.29-0.65-0.63-0.65c-0.36,0-0.65,0.27-0.65,0.65C444.7,313.68,445,313.96,445.36,313.96
		 M445.36,310.07c0.35,0,0.63-0.28,0.63-0.66c0-0.38-0.29-0.65-0.63-0.65c-0.36,0-0.65,0.27-0.65,0.65
		C444.7,309.79,445,310.07,445.36,310.07 M439.19,313.96c1.36,0,2.2-0.59,2.2-1.51c0-1.98-3.23-1-3.23-2.2c0-0.4,0.4-0.7,1.2-0.7
		c0.5,0,1.01,0.11,1.47,0.4l0.39-0.73c-0.44-0.29-1.19-0.46-1.86-0.46c-1.31,0-2.13,0.62-2.13,1.53c0,2.03,3.22,1.04,3.22,2.19
		c0,0.43-0.36,0.69-1.21,0.69c-0.67,0-1.36-0.22-1.79-0.53l-0.39,0.73C437.5,313.7,438.34,313.96,439.19,313.96 M433.9,308.75
		c-0.81,0-1.46,0.3-1.84,0.82v-0.77h-0.88v5.1h0.92v-2.63c0-1.11,0.64-1.69,1.62-1.69c0.88,0,1.38,0.49,1.38,1.49v2.83h0.92v-2.93
		C436.01,309.46,435.14,308.75,433.9,308.75 M428.49,313.9h0.92v-7.14h-0.92V313.9z M424.7,308.75c-0.87,0-1.58,0.37-1.96,0.94
		c-0.34-0.63-0.99-0.94-1.77-0.94c-0.77,0-1.4,0.29-1.76,0.81v-0.76h-0.88v5.1h0.92v-2.63c0-1.11,0.61-1.69,1.53-1.69
		c0.84,0,1.32,0.49,1.32,1.49v2.83h0.92v-2.63c0-1.11,0.61-1.69,1.53-1.69c0.84,0,1.32,0.49,1.32,1.49v2.83h0.92v-2.93
		C426.78,309.46,425.94,308.75,424.7,308.75 M417.3,313.9l-2.03-2.61l1.92-2.49h-1.01l-1.4,1.84l-1.4-1.84h-1.03l1.92,2.49
		l-2.01,2.61h1.03l1.49-1.95l1.47,1.95H417.3z M347.11,309.99l1.76-2.18v-0.65h-4.45V308h3.24l-1.69,2.08v0.67h0.54
		c1.15,0,1.67,0.46,1.67,1.18c0,0.73-0.58,1.19-1.59,1.19c-0.83,0-1.58-0.3-2.03-0.72l-0.44,0.76c0.57,0.51,1.51,0.82,2.47,0.82
		c1.71,0,2.55-0.92,2.55-2.06C349.14,310.88,348.46,310.12,347.11,309.99"/>
	<path class="st7" d="M589.59,301.39c-0.19,0.15-0.45,0.24-0.72,0.24c-0.51,0-0.8-0.31-0.8-0.86v-2.76h1.46v-0.76h-1.46v-1.12h-0.92
		v1.12h-0.87v0.76h0.87v2.8c0,1.03,0.59,1.6,1.62,1.6c0.41,0,0.84-0.11,1.12-0.36L589.59,301.39z M585.48,295.91
		c0.27,0,0.52,0.1,0.71,0.24l0.28-0.7c-0.26-0.2-0.64-0.3-1.04-0.3c-1.09,0-1.68,0.65-1.68,1.65v0.45h-0.87v0.76h0.87v4.34h0.92
		v-4.34h1.46v-0.76h-1.48v-0.44C584.65,296.22,584.93,295.91,585.48,295.91 M579.68,301.6c-0.98,0-1.72-0.71-1.72-1.8
		c0-1.09,0.74-1.79,1.72-1.79c0.98,0,1.71,0.7,1.71,1.79C581.4,300.89,580.67,301.6,579.68,301.6 M579.68,302.41
		c1.53,0,2.65-1.09,2.65-2.61s-1.11-2.6-2.65-2.6c-1.53,0-2.66,1.08-2.66,2.6S578.15,302.41,579.68,302.41 M574.14,302.41
		c1.36,0,2.2-0.59,2.2-1.51c0-1.98-3.23-1-3.23-2.2c0-0.4,0.39-0.7,1.2-0.7c0.5,0,1.01,0.11,1.47,0.4l0.39-0.73
		c-0.44-0.29-1.19-0.46-1.86-0.46c-1.31,0-2.13,0.61-2.13,1.53c0,2.03,3.22,1.04,3.22,2.18c0,0.43-0.36,0.69-1.21,0.69
		c-0.66,0-1.36-0.22-1.79-0.53l-0.39,0.73C572.46,302.15,573.29,302.41,574.14,302.41 M568.75,301.6c-0.98,0-1.72-0.71-1.72-1.8
		c0-1.09,0.74-1.79,1.72-1.79s1.71,0.7,1.71,1.79C570.47,300.89,569.73,301.6,568.75,301.6 M568.75,302.41
		c1.53,0,2.65-1.09,2.65-2.61s-1.11-2.6-2.65-2.6s-2.66,1.08-2.66,2.6S567.22,302.41,568.75,302.41 M563.62,298.1v-0.85h-0.88v5.1
		h0.92v-2.54c0-1.12,0.61-1.72,1.61-1.72c0.07,0,0.13,0,0.21,0.01v-0.89C564.58,297.2,563.95,297.51,563.62,298.1 M559.46,302.41
		c0.91,0,1.67-0.39,2.08-1.1l-0.7-0.44c-0.33,0.5-0.83,0.73-1.39,0.73c-1,0-1.75-0.69-1.75-1.8c0-1.09,0.75-1.79,1.75-1.79
		c0.56,0,1.06,0.23,1.39,0.73l0.7-0.45c-0.4-0.71-1.16-1.09-2.08-1.09c-1.57,0-2.69,1.08-2.69,2.6S557.9,302.41,559.46,302.41
		 M554.56,302.35h0.92v-5.1h-0.92V302.35z M555.02,296.27c0.37,0,0.62-0.27,0.62-0.62c0-0.33-0.27-0.59-0.62-0.59
		c-0.36,0-0.62,0.27-0.62,0.61C554.39,296.01,554.66,296.27,555.02,296.27 M550.77,297.2c-0.87,0-1.58,0.36-1.96,0.94
		c-0.34-0.63-0.99-0.94-1.77-0.94c-0.77,0-1.4,0.29-1.76,0.81v-0.76h-0.88v5.1h0.92v-2.63c0-1.11,0.61-1.69,1.53-1.69
		c0.84,0,1.32,0.49,1.32,1.49v2.83h0.92v-2.63c0-1.11,0.61-1.69,1.53-1.69c0.84,0,1.32,0.49,1.32,1.49v2.83h0.92v-2.94
		C552.85,297.91,552.01,297.2,550.77,297.2 M542.42,302.41c0.35,0,0.63-0.28,0.63-0.66c0-0.38-0.29-0.65-0.63-0.65
		c-0.36,0-0.65,0.27-0.65,0.65C541.77,302.13,542.07,302.41,542.42,302.41 M538.84,302.41c1.36,0,2.2-0.59,2.2-1.51
		c0-1.98-3.23-1-3.23-2.2c0-0.4,0.39-0.7,1.2-0.7c0.5,0,1.01,0.11,1.47,0.4l0.39-0.73c-0.44-0.29-1.19-0.46-1.86-0.46
		c-1.31,0-2.13,0.61-2.13,1.53c0,2.03,3.22,1.04,3.22,2.18c0,0.43-0.36,0.69-1.21,0.69c-0.66,0-1.36-0.22-1.79-0.53l-0.38,0.73
		C537.16,302.15,537.99,302.41,538.84,302.41 M533.27,301.7c-0.7,0-1.13-0.32-1.13-0.83c0-0.43,0.26-0.79,1.17-0.79h1.42v0.71
		C534.51,301.38,533.96,301.7,533.27,301.7 M533.48,297.2c-0.82,0-1.58,0.23-2.11,0.65l0.39,0.69c0.39-0.34,1.01-0.55,1.62-0.55
		c0.91,0,1.37,0.45,1.37,1.23v0.18h-1.46c-1.52,0-2.05,0.67-2.05,1.49c0,0.89,0.73,1.5,1.89,1.5c0.8,0,1.37-0.27,1.67-0.73v0.67
		h0.87v-3.08C535.66,297.87,534.88,297.2,533.48,297.2 M527.83,297.2c-0.87,0-1.58,0.36-1.96,0.94c-0.34-0.63-0.99-0.94-1.77-0.94
		c-0.77,0-1.4,0.29-1.76,0.81v-0.76h-0.89v5.1h0.92v-2.63c0-1.11,0.61-1.69,1.53-1.69c0.84,0,1.32,0.49,1.32,1.49v2.83h0.92v-2.63
		c0-1.11,0.61-1.69,1.53-1.69c0.84,0,1.32,0.49,1.32,1.49v2.83h0.92v-2.94C529.92,297.91,529.07,297.2,527.83,297.2 M517.65,297.98
		c0.9,0,1.54,0.61,1.64,1.46h-3.27C516.11,298.58,516.76,297.98,517.65,297.98 M520.17,299.83c0-1.57-1.05-2.63-2.52-2.63
		c-1.47,0-2.56,1.09-2.56,2.6c0,1.52,1.1,2.61,2.74,2.61c0.85,0,1.55-0.29,2.01-0.83l-0.51-0.6c-0.38,0.41-0.88,0.62-1.47,0.62
		c-1.01,0-1.73-0.6-1.85-1.49h4.14C520.16,300.02,520.17,299.9,520.17,299.83 M511.7,297.2c-0.78,0-1.42,0.28-1.8,0.77v-2.76h-0.92
		v7.14h0.92v-2.63c0-1.11,0.64-1.69,1.62-1.69c0.88,0,1.38,0.49,1.38,1.49v2.83h0.92v-2.94C513.82,297.91,512.94,297.2,511.7,297.2
		 M505.77,302.41c0.91,0,1.68-0.39,2.08-1.1l-0.7-0.44c-0.33,0.5-0.83,0.73-1.39,0.73c-1,0-1.75-0.69-1.75-1.8
		c0-1.09,0.75-1.79,1.75-1.79c0.56,0,1.06,0.23,1.39,0.73l0.7-0.45c-0.4-0.71-1.17-1.09-2.08-1.09c-1.57,0-2.69,1.08-2.69,2.6
		S504.21,302.41,505.77,302.41 M500.19,302.41c1.36,0,2.2-0.59,2.2-1.51c0-1.98-3.23-1-3.23-2.2c0-0.4,0.39-0.7,1.2-0.7
		c0.5,0,1.01,0.11,1.47,0.4l0.39-0.73c-0.44-0.29-1.19-0.46-1.86-0.46c-1.31,0-2.13,0.61-2.13,1.53c0,2.03,3.22,1.04,3.22,2.18
		c0,0.43-0.36,0.69-1.21,0.69c-0.66,0-1.36-0.22-1.79-0.53l-0.38,0.73C498.51,302.15,499.35,302.41,500.19,302.41 M494.84,303.31
		h0.84l3.17-9.07h-0.84L494.84,303.31z M492.11,303.31h0.84l3.17-9.07h-0.84L492.11,303.31z M490.83,302.41
		c0.35,0,0.64-0.28,0.64-0.66c0-0.38-0.29-0.65-0.64-0.65c-0.35,0-0.65,0.27-0.65,0.65C490.18,302.13,490.47,302.41,490.83,302.41
		 M490.83,298.52c0.35,0,0.64-0.28,0.64-0.66c0-0.38-0.29-0.65-0.64-0.65c-0.35,0-0.65,0.27-0.65,0.65
		C490.18,298.24,490.47,298.52,490.83,298.52 M487.25,302.41c1.36,0,2.2-0.59,2.2-1.51c0-1.98-3.23-1-3.23-2.2
		c0-0.4,0.39-0.7,1.2-0.7c0.5,0,1.01,0.11,1.47,0.4l0.39-0.73c-0.44-0.29-1.19-0.46-1.86-0.46c-1.31,0-2.13,0.61-2.13,1.53
		c0,2.03,3.22,1.04,3.22,2.18c0,0.43-0.36,0.69-1.21,0.69c-0.66,0-1.36-0.22-1.79-0.53l-0.39,0.73
		C485.57,302.15,486.4,302.41,487.25,302.41 M481.85,301.6c-0.97,0-1.71-0.71-1.71-1.8c0-1.08,0.74-1.79,1.71-1.79
		c0.98,0,1.72,0.71,1.72,1.79C483.57,300.89,482.83,301.6,481.85,301.6 M481.93,297.2c-0.75,0-1.41,0.29-1.82,0.85v-0.81h-0.88v6.97
		h0.92v-2.64c0.42,0.55,1.06,0.83,1.78,0.83c1.49,0,2.58-1.04,2.58-2.61C484.51,298.24,483.42,297.2,481.93,297.2 M477.82,301.39
		c-0.19,0.15-0.45,0.24-0.72,0.24c-0.51,0-0.8-0.31-0.8-0.86v-2.76h1.46v-0.76h-1.46v-1.12h-0.92v1.12h-0.87v0.76h0.87v2.8
		c0,1.03,0.59,1.6,1.61,1.6c0.41,0,0.84-0.11,1.12-0.36L477.82,301.39z M473.96,301.39c-0.19,0.15-0.45,0.24-0.72,0.24
		c-0.51,0-0.8-0.31-0.8-0.86v-2.76h1.46v-0.76h-1.46v-1.12h-0.92v1.12h-0.87v0.76h0.87v2.8c0,1.03,0.59,1.6,1.62,1.6
		c0.41,0,0.84-0.11,1.12-0.36L473.96,301.39z M467.55,297.2c-0.78,0-1.42,0.28-1.8,0.77v-2.76h-0.92v7.14h0.92v-2.63
		c0-1.11,0.63-1.69,1.62-1.69c0.88,0,1.38,0.49,1.38,1.49v2.83h0.92v-2.94C469.67,297.91,468.79,297.2,467.55,297.2 M462.87,295.15
		c-0.37,0-0.64,0.27-0.64,0.65c0,0.29,0.16,0.51,0.4,0.6l-0.36,1.43h0.61l0.46-1.35c0.12-0.36,0.15-0.5,0.15-0.68
		C463.5,295.43,463.24,295.15,462.87,295.15 M461.05,295.15c-0.36,0-0.64,0.27-0.64,0.65c0,0.29,0.16,0.51,0.4,0.6l-0.36,1.43h0.61
		l0.46-1.35c0.12-0.36,0.15-0.5,0.15-0.68C461.68,295.43,461.42,295.15,461.05,295.15 M454.99,300.5h4.31v-0.76h-4.31V300.5z
		 M454.99,298.22h4.31v-0.76h-4.31V298.22z M454.21,302.35l-2.03-2.61l1.92-2.49h-1.01l-1.4,1.84l-1.4-1.84h-1.03l1.91,2.49
		l-2.01,2.61h1.03l1.49-1.95l1.47,1.95H454.21z M445.36,302.41c0.35,0,0.63-0.28,0.63-0.66c0-0.38-0.29-0.65-0.63-0.65
		c-0.36,0-0.65,0.27-0.65,0.65C444.7,302.13,445,302.41,445.36,302.41 M445.36,298.52c0.35,0,0.63-0.28,0.63-0.66
		c0-0.38-0.29-0.65-0.63-0.65c-0.36,0-0.65,0.27-0.65,0.65C444.7,298.24,445,298.52,445.36,298.52 M439.19,302.41
		c1.36,0,2.2-0.59,2.2-1.51c0-1.98-3.23-1-3.23-2.2c0-0.4,0.39-0.7,1.2-0.7c0.5,0,1.01,0.11,1.47,0.4l0.39-0.73
		c-0.44-0.29-1.19-0.46-1.86-0.46c-1.31,0-2.13,0.61-2.13,1.53c0,2.03,3.22,1.04,3.22,2.18c0,0.43-0.36,0.69-1.21,0.69
		c-0.67,0-1.36-0.22-1.79-0.53l-0.38,0.73C437.5,302.15,438.34,302.41,439.19,302.41 M433.9,297.2c-0.81,0-1.46,0.3-1.84,0.82v-0.77
		h-0.88v5.1h0.92v-2.63c0-1.11,0.64-1.69,1.62-1.69c0.88,0,1.38,0.49,1.38,1.49v2.83h0.92v-2.94
		C436.01,297.91,435.14,297.2,433.9,297.2 M428.49,302.35h0.92v-7.14h-0.92V302.35z M424.7,297.2c-0.87,0-1.58,0.36-1.96,0.94
		c-0.34-0.63-0.99-0.94-1.77-0.94c-0.77,0-1.4,0.29-1.76,0.81v-0.76h-0.88v5.1h0.92v-2.63c0-1.11,0.61-1.69,1.53-1.69
		c0.84,0,1.32,0.49,1.32,1.49v2.83h0.92v-2.63c0-1.11,0.61-1.69,1.53-1.69c0.84,0,1.32,0.49,1.32,1.49v2.83h0.92v-2.94
		C426.78,297.91,425.94,297.2,424.7,297.2 M417.3,302.35l-2.03-2.61l1.92-2.49h-1.01l-1.39,1.84l-1.4-1.84h-1.03l1.92,2.49
		l-2.01,2.61h1.03l1.49-1.95l1.47,1.95H417.3z M346.01,301.51l1.76-1.42c0.86-0.7,1.14-1.19,1.14-1.87c0-0.99-0.89-1.72-2.32-1.72
		c-1.09,0-1.95,0.38-2.49,1.1l0.72,0.49c0.39-0.49,0.96-0.75,1.7-0.75c0.94,0,1.41,0.4,1.41,0.94c0,0.4-0.17,0.72-0.85,1.28
		l-2.74,2.22v0.57h4.84v-0.84H346.01z"/>
	<path class="st7" d="M515.06,290.05c-0.97,0-1.71-0.71-1.71-1.8c0-1.09,0.74-1.79,1.71-1.79c0.98,0,1.72,0.7,1.72,1.79
		C516.78,289.34,516.04,290.05,515.06,290.05 M515.14,285.65c-0.72,0-1.36,0.27-1.78,0.82v-2.81h-0.92v7.14h0.89v-0.81
		c0.41,0.58,1.07,0.86,1.82,0.86c1.49,0,2.58-1.05,2.58-2.61C517.72,286.69,516.63,285.65,515.14,285.65 M509.75,285.7v2.64
		c0,1.1-0.62,1.69-1.58,1.69c-0.88,0-1.38-0.5-1.38-1.5v-2.83h-0.92v2.94c0,1.5,0.88,2.22,2.19,2.22c0.72,0,1.36-0.3,1.73-0.83v0.77
		h0.88v-5.1H509.75z M502.09,285.65c-0.78,0-1.42,0.28-1.8,0.77v-2.76h-0.92v7.14h0.92v-2.63c0-1.11,0.64-1.69,1.62-1.69
		c0.88,0,1.38,0.49,1.38,1.49v2.83h0.92v-2.93C504.2,286.36,503.33,285.65,502.09,285.65 M497.96,289.84
		c-0.19,0.15-0.45,0.24-0.72,0.24c-0.51,0-0.8-0.31-0.8-0.86v-2.76h1.46v-0.76h-1.46v-1.12h-0.92v1.12h-0.87v0.76h0.87v2.8
		c0,1.03,0.59,1.6,1.62,1.6c0.41,0,0.84-0.12,1.12-0.36L497.96,289.84z M492.7,290.8h0.92v-5.1h-0.92V290.8z M493.16,284.72
		c0.37,0,0.62-0.27,0.62-0.62c0-0.33-0.27-0.59-0.62-0.59c-0.36,0-0.62,0.27-0.62,0.61C492.53,284.46,492.8,284.72,493.16,284.72
		 M488.28,289.78c-1.03,0-1.76-0.68-1.76-1.67c0-0.99,0.73-1.66,1.76-1.66c1.02,0,1.75,0.66,1.75,1.66
		C490.03,289.1,489.3,289.78,488.28,289.78 M490.06,285.7v0.79c-0.43-0.56-1.13-0.84-1.89-0.84c-1.47,0-2.59,0.99-2.59,2.46
		s1.12,2.47,2.59,2.47c0.73,0,1.4-0.26,1.84-0.79v0.4c0,1.15-0.55,1.71-1.75,1.71c-0.75,0-1.49-0.26-1.96-0.67l-0.44,0.71
		c0.56,0.5,1.5,0.76,2.43,0.76c1.73,0,2.65-0.82,2.65-2.62v-4.41H490.06z M482.17,291.76H483l3.17-9.07h-0.84L482.17,291.76z
		 M479.43,291.76h0.84l3.17-9.07h-0.84L479.43,291.76z M478.15,290.86c0.35,0,0.63-0.28,0.63-0.66c0-0.38-0.29-0.65-0.63-0.65
		c-0.36,0-0.65,0.27-0.65,0.65C477.5,290.58,477.8,290.86,478.15,290.86 M478.15,286.97c0.35,0,0.63-0.28,0.63-0.66
		c0-0.38-0.29-0.65-0.63-0.65c-0.36,0-0.65,0.27-0.65,0.65C477.5,286.69,477.8,286.97,478.15,286.97 M474.57,290.86
		c1.36,0,2.2-0.59,2.2-1.51c0-1.98-3.23-1-3.23-2.2c0-0.4,0.39-0.7,1.2-0.7c0.5,0,1.01,0.11,1.47,0.4l0.39-0.73
		c-0.44-0.29-1.19-0.46-1.86-0.46c-1.31,0-2.13,0.61-2.13,1.53c0,2.03,3.22,1.04,3.22,2.18c0,0.43-0.36,0.69-1.21,0.69
		c-0.66,0-1.36-0.22-1.79-0.53l-0.38,0.73C472.89,290.6,473.73,290.86,474.57,290.86 M469.18,290.05c-0.97,0-1.71-0.71-1.71-1.8
		c0-1.08,0.74-1.79,1.71-1.79c0.98,0,1.72,0.71,1.72,1.79C470.9,289.34,470.16,290.05,469.18,290.05 M469.25,285.65
		c-0.75,0-1.41,0.29-1.82,0.86v-0.81h-0.88v6.97h0.92v-2.64c0.42,0.55,1.06,0.83,1.78,0.83c1.49,0,2.58-1.04,2.58-2.61
		C471.83,286.69,470.74,285.65,469.25,285.65 M465.14,289.84c-0.19,0.15-0.45,0.24-0.72,0.24c-0.51,0-0.8-0.31-0.8-0.86v-2.76h1.46
		v-0.76h-1.46v-1.12h-0.92v1.12h-0.87v0.76h0.87v2.8c0,1.03,0.59,1.6,1.61,1.6c0.41,0,0.84-0.12,1.12-0.36L465.14,289.84z
		 M461.28,289.84c-0.19,0.15-0.45,0.24-0.72,0.24c-0.51,0-0.8-0.31-0.8-0.86v-2.76h1.46v-0.76h-1.46v-1.12h-0.92v1.12h-0.87v0.76
		h0.87v2.8c0,1.03,0.59,1.6,1.61,1.6c0.41,0,0.84-0.12,1.12-0.36L461.28,289.84z M454.87,285.65c-0.78,0-1.42,0.28-1.8,0.77v-2.76
		h-0.92v7.14h0.92v-2.63c0-1.11,0.63-1.69,1.62-1.69c0.88,0,1.38,0.49,1.38,1.49v2.83h0.92v-2.93
		C456.99,286.36,456.12,285.65,454.87,285.65 M450.2,283.6c-0.36,0-0.64,0.27-0.64,0.65c0,0.29,0.16,0.51,0.4,0.6l-0.36,1.43h0.61
		l0.46-1.35c0.12-0.36,0.15-0.5,0.15-0.68C450.82,283.88,450.56,283.6,450.2,283.6 M448.38,283.6c-0.36,0-0.64,0.27-0.64,0.65
		c0,0.29,0.16,0.51,0.4,0.6l-0.36,1.43h0.61l0.46-1.35c0.12-0.36,0.15-0.5,0.15-0.68C449,283.88,448.74,283.6,448.38,283.6
		 M442.32,288.95h4.31v-0.76h-4.31V288.95z M442.32,286.67h4.31v-0.76h-4.31V286.67z M439.19,290.86c1.36,0,2.2-0.59,2.2-1.51
		c0-1.98-3.23-1-3.23-2.2c0-0.4,0.4-0.7,1.2-0.7c0.5,0,1.01,0.11,1.47,0.4l0.39-0.73c-0.44-0.29-1.19-0.46-1.86-0.46
		c-1.31,0-2.13,0.61-2.13,1.53c0,2.03,3.22,1.04,3.22,2.18c0,0.43-0.36,0.69-1.21,0.69c-0.66,0-1.36-0.22-1.79-0.53l-0.38,0.73
		C437.5,290.6,438.34,290.86,439.19,290.86 M433.9,285.65c-0.81,0-1.46,0.3-1.84,0.82v-0.77h-0.88v5.1h0.92v-2.63
		c0-1.11,0.64-1.69,1.62-1.69c0.88,0,1.38,0.49,1.38,1.49v2.83h0.92v-2.93C436.01,286.36,435.14,285.65,433.9,285.65 M428.49,290.8
		h0.92v-7.14h-0.92V290.8z M424.7,285.65c-0.87,0-1.58,0.37-1.96,0.94c-0.34-0.63-0.99-0.94-1.77-0.94c-0.77,0-1.4,0.29-1.76,0.81
		v-0.76h-0.88v5.1h0.92v-2.63c0-1.11,0.61-1.69,1.53-1.69c0.84,0,1.32,0.49,1.32,1.49v2.83h0.92v-2.63c0-1.11,0.61-1.69,1.53-1.69
		c0.84,0,1.32,0.49,1.32,1.49v2.83h0.92v-2.93C426.78,286.36,425.94,285.65,424.7,285.65 M417.3,290.8l-2.03-2.61l1.92-2.49h-1.01
		l-1.39,1.84l-1.4-1.84h-1.03l1.91,2.49l-2.01,2.61h1.03l1.49-1.95l1.47,1.95H417.3z"/>
	<path class="st8" d="M404.59,290.86c1.36,0,2.2-0.59,2.2-1.51c0-1.98-3.23-1-3.23-2.2c0-0.4,0.4-0.7,1.2-0.7
		c0.5,0,1.01,0.11,1.47,0.41l0.39-0.73c-0.44-0.29-1.19-0.46-1.86-0.46c-1.31,0-2.13,0.62-2.13,1.53c0,2.03,3.22,1.04,3.22,2.18
		c0,0.43-0.36,0.69-1.21,0.69c-0.67,0-1.36-0.22-1.79-0.53l-0.39,0.73C402.9,290.6,403.74,290.86,404.59,290.86 M399.32,286.43
		c0.89,0,1.54,0.61,1.64,1.46h-3.27C397.78,287.03,398.44,286.43,399.32,286.43 M401.84,288.28c0-1.57-1.05-2.63-2.52-2.63
		c-1.47,0-2.56,1.09-2.56,2.6c0,1.52,1.1,2.61,2.74,2.61c0.85,0,1.55-0.29,2.01-0.83l-0.51-0.6c-0.38,0.42-0.88,0.62-1.47,0.62
		c-1.01,0-1.73-0.6-1.85-1.49h4.14C401.83,288.47,401.84,288.36,401.84,288.28 M394.55,290.8h0.92v-7.14h-0.92V290.8z M392.78,285.7
		l-1.76,4.08l-1.78-4.08h-0.96l2.25,5.09l-0.16,0.36c-0.25,0.59-0.53,0.79-0.97,0.79c-0.35,0-0.66-0.13-0.91-0.38l-0.4,0.69
		c0.32,0.31,0.82,0.47,1.31,0.47c0.78,0,1.37-0.34,1.82-1.41l2.47-5.61H392.78z M387.86,289.84c-0.19,0.15-0.45,0.24-0.72,0.24
		c-0.51,0-0.8-0.31-0.8-0.86v-2.76h1.46v-0.76h-1.46v-1.12h-0.92v1.12h-0.87v0.76h0.87v2.8c0,1.03,0.59,1.6,1.61,1.6
		c0.41,0,0.84-0.12,1.12-0.36L387.86,289.84z M381.4,290.88c1.78,0,2.61-0.88,2.61-1.91c0-2.47-4.08-1.44-4.08-3.09
		c0-0.59,0.49-1.07,1.64-1.07c0.6,0,1.26,0.17,1.85,0.55l0.32-0.77c-0.56-0.38-1.38-0.6-2.17-0.6c-1.77,0-2.58,0.88-2.58,1.93
		c0,2.5,4.08,1.46,4.08,3.11c0,0.59-0.5,1.04-1.67,1.04c-0.87,0-1.72-0.33-2.22-0.78l-0.36,0.75
		C379.36,290.53,380.37,290.88,381.4,290.88 M377.79,285.32l-4.31,1.7v0.83l4.31,1.7v-0.8l-3.42-1.32l3.42-1.32V285.32z"/>
</g>
<polygon class="st1" points="346.09,284.07 346.09,284.9 347.61,284.9 347.61,290.8 348.56,290.8 348.56,284.07 "/>
<path class="st9" d="M879.87,310.36h-89.61v-45.69c0-2.07-1.68-3.75-3.75-3.75s-3.75,1.68-3.75,3.75v84.33
	c0,3.36-2.73,6.09-6.09,6.09H586.1c-3.36,0-6.09-2.73-6.09-6.09v-18.27c0-2.07-1.68-3.75-3.75-3.75s-3.75,1.68-3.75,3.75v18.27
	c0,7.49,6.1,13.59,13.59,13.59h190.57c7.49,0,13.59-6.1,13.59-13.59v-31.15h89.61c2.07,0,3.75-1.68,3.75-3.75
	S881.94,310.36,879.87,310.36z"/>
<g>
	<g class="st10">
		<g>
			<defs>
				<rect id="SVGID_23_" x="-32768" y="-32167" width="65535" height="65535"/>
			</defs>
			<clipPath id="SVGID_24_">
				<use xlink:href="#SVGID_23_"  style="overflow:visible;"/>
			</clipPath>
			<path class="st11" d="M728.38,440.05c-0.29-10.79-9.1-19.45-19.96-19.45c-11.04,0-19.98,8.95-19.98,19.98
				c0,10.92,8.76,19.78,19.63,19.97v0.02h0.35c0,0,0,0,0,0s0,0,0,0h14.86v-0.02c0.08,0,0.16,0.02,0.24,0.02
				c2.5,0,4.53-1.88,4.82-4.3h0.06v-16.22H728.38z"/>
			<defs>
				<filter id="Adobe_OpacityMaskFilter" filterUnits="userSpaceOnUse" x="695.68" y="427.85" width="25.48" height="25.48">
					<feColorMatrix  type="matrix" values="1 0 0 0 0  0 1 0 0 0  0 0 1 0 0  0 0 0 1 0"/>
				</filter>
			</defs>
			<mask maskUnits="userSpaceOnUse" x="695.68" y="427.85" width="25.48" height="25.48" id="SVGID_25_">
				<g class="st12">
					<g>
						<defs>
							<rect id="SVGID_26_" x="-32768" y="-32167" width="65535" height="65535"/>
						</defs>
						<clipPath id="SVGID_27_" class="st13">
							<use xlink:href="#SVGID_26_"  style="overflow:visible;"/>
						</clipPath>
						
							<linearGradient id="SVGID_28_" gradientUnits="userSpaceOnUse" x1="-1783.0895" y1="614.7463" x2="1737.4153" y2="614.7463" gradientTransform="matrix(18.6152 -18.6152 -18.6152 -18.6152 11868.2578 11619.0293)">
							<stop  offset="0" style="stop-color:#FFFFFF"/>
							<stop  offset="0.6784" style="stop-color:#FFFFFF"/>
							<stop  offset="1" style="stop-color:#FFFFFF"/>
						</linearGradient>
						<polygon class="st14" points="-65535.51,600.52 -0.52,-64934.49 65534.49,600.49 -0.49,66135.51 						"/>
					</g>
				</g>
			</mask>
			
				<linearGradient id="SVGID_29_" gradientUnits="userSpaceOnUse" x1="0" y1="600.0002" x2="1" y2="600.0002" gradientTransform="matrix(18.6152 -18.6152 -18.6152 -18.6152 11868.2383 11619.0146)">
				<stop  offset="0" style="stop-color:#623079"/>
				<stop  offset="0.6784" style="stop-color:#8B44AC"/>
				<stop  offset="1" style="stop-color:#8B44AC"/>
			</linearGradient>
			<path class="st15" d="M708.42,430.85v-3c7.04,0,12.74,5.7,12.74,12.74c0,7.04-5.7,12.74-12.74,12.74
				c-7.04,0-12.74-5.7-12.74-12.74c0-7.04,5.7-12.74,12.74-12.74V430.85v3c-3.72,0.01-6.73,3.02-6.74,6.74
				c0.01,3.72,3.02,6.73,6.74,6.74c3.72-0.01,6.73-3.02,6.74-6.74c-0.01-3.72-3.02-6.73-6.74-6.74V430.85z"/>
			<rect x="715.15" y="440.41" class="st16" width="5.99" height="13.25"/>
			<path class="st17" d="M694.76,437.61c1.64,0,2.98,1.33,2.98,2.98s-1.33,2.98-2.98,2.98c-1.64,0-2.98-1.33-2.98-2.98
				S693.11,437.61,694.76,437.61"/>
			<path class="st11" d="M694.76,444.13c-1.96,0-3.55-1.59-3.55-3.55s1.59-3.55,3.55-3.55s3.55,1.59,3.55,3.55
				S696.71,444.13,694.76,444.13z M694.76,438.18c-1.33,0-2.41,1.08-2.41,2.41s1.08,2.41,2.41,2.41s2.41-1.08,2.41-2.41
				S696.08,438.18,694.76,438.18z"/>
		</g>
	</g>
</g>
<g>
	<path class="st1" d="M826.86,86.87l-36.05-60.67c-1.19-2-3.12-2-4.31,0l-36.05,60.67H826.86z"/>
	<path class="st1" d="M916.93,238.44l-74.59-125.53H734.98l-74.59,125.53c-1.19,2-0.27,3.62,2.06,3.62h252.41
		C917.19,242.07,918.12,240.44,916.93,238.44"/>
</g>
<linearGradient id="SVGID_30_" gradientUnits="userSpaceOnUse" x1="107.0133" y1="358.5723" x2="144.2803" y2="322.5475">
	<stop  offset="0" style="stop-color:#F2F2F2"/>
	<stop  offset="1" style="stop-color:#E0E0E0"/>
</linearGradient>
<path class="st18" d="M109.2,357.1c5.13,5.13,11.96,7.96,19.22,7.96s14.08-2.83,19.22-7.96c10.6-10.6,10.6-27.84,0-38.43
	c-5.3-5.3-12.26-7.95-19.22-7.95c-6.96,0-13.92,2.65-19.22,7.95c-5.13,5.13-7.96,11.96-7.96,19.22
	C101.24,345.14,104.06,351.97,109.2,357.1L109.2,357.1"/>
<linearGradient id="SVGID_31_" gradientUnits="userSpaceOnUse" x1="228.2153" y1="631.5336" x2="780.8986" y2="427.0208">
	<stop  offset="0" style="stop-color:#F2F2F2"/>
	<stop  offset="1" style="stop-color:#B3B3B3"/>
</linearGradient>
<path class="st19" d="M495.07,480.9v55.77c0,3.9-1.22,7.51-3.29,10.49l96.16-0.02c0.51-0.11,1.05-0.17,1.59-0.17
	c22.91,0,41.66-18.64,41.82-41.55c0-0.14,0.01-0.29,0.02-0.45V480.9H495.07z"/>
<path class="st20" d="M969.01,86.85H447.83c-6.39,0-11.58,5.2-11.58,11.58V226.1H322.27c-6.05,0-10.95,4.9-10.95,10.95v299.62
	c0,6.05,4.91,10.95,10.95,10.95h154.35c6.05,0,10.95-4.9,10.95-10.95V410.55h493.03l0-312.11C980.59,92.05,975.4,86.85,969.01,86.85
	z M473.88,492.15H324.52V241.39h38.9v2.66c0,5.87,4.76,10.63,10.64,10.63h50.28c5.87,0,10.63-4.76,10.63-10.63v-2.66h38.91V492.15z
	 M955.87,385.08H487.57V237.05c0-6.05-4.9-10.95-10.95-10.95h-15.64v-29.88c-0.77-0.66-1.53-1.34-2.25-2.07
	c-14.98-14.98-14.98-39.36,0-54.34c0.72-0.72,1.48-1.41,2.25-2.07v-24.83h494.9V385.08z"/>
<linearGradient id="SVGID_32_" gradientUnits="userSpaceOnUse" x1="454.9785" y1="166.9785" x2="516.8022" y2="166.9785">
	<stop  offset="0" style="stop-color:#8C45AB"/>
	<stop  offset="1" style="stop-color:#613078"/>
</linearGradient>
<path class="st21" d="M485.89,136.07c-8.27,0-16.04,3.21-21.87,9.04c-12.06,12.06-12.06,31.68,0,43.74
	c5.83,5.83,13.6,9.04,21.87,9.04c8.27,0,16.04-3.21,21.87-9.04c5.83-5.83,9.04-13.6,9.04-21.87s-3.21-16.04-9.04-21.87
	C501.93,139.28,494.16,136.07,485.89,136.07z"/>
<linearGradient id="SVGID_33_" gradientUnits="userSpaceOnUse" x1="140.9412" y1="395.6805" x2="693.6244" y2="191.1678">
	<stop  offset="0" style="stop-color:#F2F2F2"/>
	<stop  offset="1" style="stop-color:#B3B3B3"/>
</linearGradient>
<path class="st22" d="M304.84,542.7c-0.01-0.04-0.03-0.08-0.05-0.12c-0.09-0.27-0.18-0.55-0.26-0.82c-0.11-0.37-0.2-0.74-0.29-1.12
	c-0.04-0.19-0.08-0.37-0.11-0.56c-0.09-0.47-0.16-0.94-0.22-1.42c-0.01-0.09-0.01-0.18-0.02-0.27c-0.05-0.56-0.09-1.13-0.09-1.7
	V237.05c0-10.18,8.28-18.45,18.45-18.45h106.48v-92.01h-89.13c-104.91,0-192.18,76.69-208.34,176.77
	c7.9,0.65,15.63,3.98,21.66,10.02c13.52,13.52,13.52,35.52,0,49.04c-5.8,5.8-13.29,9.29-21.36,10.01
	c7.16,42.07,26.99,80.92,57.6,111.92c31.75,32.15,72.35,52.95,116.36,60.06C305.28,543.84,305.05,543.28,304.84,542.7z"/>
<path class="st1" d="M955.87,270.15h-53.98c-2.33,0-4.22,1.89-4.22,4.22v79.49c0,2.33,1.89,4.22,4.22,4.22h53.98V270.15z"/>
<linearGradient id="SVGID_34_" gradientUnits="userSpaceOnUse" x1="615.2169" y1="510.2963" x2="800.0837" y2="510.2963">
	<stop  offset="0" style="stop-color:#F2F2F2"/>
	<stop  offset="0.2372" style="stop-color:#EAEAEA"/>
	<stop  offset="0.4316" style="stop-color:#E0E0E0"/>
</linearGradient>
<path class="st23" d="M778,505.47c-0.01-0.11-0.02-0.25-0.02-0.36V473.4H638.86v31.71c0,0.11,0,0.22-0.01,0.33
	c-0.12,17.64-9.57,33.12-23.63,41.75h186.41C787.57,538.56,778.12,523.09,778,505.47z"/>
</svg>
