<?xml version="1.0" encoding="utf-8"?>
<!-- Generator: Adobe Illustrator 24.1.0, SVG Export Plug-In . SVG Version: 6.00 Build 0)  -->
<svg version="1.1" id="Layer_1" xmlns="http://www.w3.org/2000/svg" xmlns:xlink="http://www.w3.org/1999/xlink" x="0px" y="0px"
	 viewBox="0 0 522.67 397.72" style="enable-background:new 0 0 522.67 397.72;" xml:space="preserve">
<style type="text/css">
	.st0{fill:#FFFFFF;}
	.st1{fill:#333333;}
	.st2{clip-path:url(#SVGID_2_);fill:#CCCCCC;}
	.st3{clip-path:url(#SVGID_2_);fill:#999999;}
	.st4{fill:#00C596;}
</style>
<g>
	<g>
		<path class="st0" d="M482.92,105.78c-1.03-37.09-32.85-66.87-71.99-66.87c-26.85,0-50.25,14.02-62.64,34.79h18.81
			c9.52,0.01,17.24,7.73,17.25,17.25v80.52c7.85,2.98,16.38,4.69,25.31,4.83v0.02c0,0.01,1.81,0.02,4.04,0.02h32.48
			c2.23,0,5.36,1.23,6.99,2.76l26.86,25.14c1.63,1.52,2.95,0.95,2.95-1.28v-41.4v-31.88v-23.89H482.92z"/>
	</g>
	<path class="st1" d="M231.08,80.95c-5.34,0-9.68,4.33-9.68,9.68V355.3c0,5.34,4.33,9.68,9.68,9.68h136.35
		c5.34,0,9.68-4.33,9.68-9.68V90.63c0-5.34-4.33-9.68-9.68-9.68H231.08z"/>
	<path class="st0" d="M365,315.97V94.46h-34.37v2.35c0,5.19-4.21,9.39-9.39,9.39h-44.41c-5.19,0-9.39-4.21-9.39-9.39v-2.35h-34.37
		v221.52H365z"/>
</g>
<g>
	<defs>
		<path id="SVGID_1_" d="M330.63,94.46v2.35c0,5.19-4.21,9.39-9.4,9.39h-44.41c-5.19,0-9.39-4.21-9.39-9.39v-2.35h-34.37v221.51H365
			V94.46H330.63z"/>
	</defs>
	<clipPath id="SVGID_2_">
		<use xlink:href="#SVGID_1_"  style="overflow:visible;"/>
	</clipPath>
	<rect x="227" y="133.06" class="st2" width="126.3" height="166.17"/>
	<rect x="227" y="133.06" class="st3" width="126.3" height="18.24"/>
</g>
<g>
	<path class="st0" d="M289.07,349.91c5.5,5.5,14.42,5.5,19.93,0s5.5-14.42,0-19.93c-5.5-5.5-14.42-5.5-19.93,0
		C283.57,335.49,283.57,344.41,289.07,349.91"/>
	<path class="st0" d="M299.25,249.68c12.32,0,22.3-9.98,22.3-22.3c0-12.32-9.98-22.3-22.3-22.3c-12.32,0-22.3,9.99-22.3,22.3
		C276.95,239.7,286.93,249.68,299.25,249.68"/>
	<path class="st0" d="M330.89,301.41v-19.56c0-13.17-14.17-23.85-31.64-23.85c-17.48,0-31.64,10.68-31.64,23.85v19.56H330.89z"/>
	<path class="st4" d="M33.57,273.01c-1.6,1.55-2.9,1-2.9-1.23v-19.04v-16.19v-12.14h0.02c0.51-18.84,16.13-33.97,35.34-33.97
		c19.53,0,35.36,15.63,35.36,34.9c0,19.07-15.5,34.56-34.73,34.89v0.01c0,0-1.81,0.01-4.04,0.01H50.78c-2.23,0-5.34,1.26-6.94,2.81
		L33.57,273.01z"/>
	<path class="st0" d="M132.86,234.79c5.15,0,9.32-4.17,9.32-9.32c0-5.15-4.17-9.32-9.32-9.32c-5.15,0-9.32,4.17-9.32,9.32
		C123.54,230.61,127.71,234.79,132.86,234.79"/>
	<path class="st0" d="M160.42,234.79c5.15,0,9.32-4.17,9.32-9.32c0-5.15-4.17-9.32-9.32-9.32c-5.15,0-9.32,4.17-9.32,9.32
		C151.1,230.61,155.27,234.79,160.42,234.79"/>
	<path class="st0" d="M187.98,234.79c5.15,0,9.32-4.17,9.32-9.32c0-5.15-4.17-9.32-9.32-9.32c-5.15,0-9.32,4.17-9.32,9.32
		C178.66,230.61,182.83,234.79,187.98,234.79"/>
</g>
</svg>
