<?xml version="1.0" encoding="utf-8"?>
<!-- Generator: Adobe Illustrator 24.1.0, SVG Export Plug-In . SVG Version: 6.00 Build 0)  -->
<svg version="1.1" id="Layer_1" xmlns="http://www.w3.org/2000/svg" xmlns:xlink="http://www.w3.org/1999/xlink" x="0px" y="0px"
	 viewBox="0 0 120 120" style="enable-background:new 0 0 120 120;" xml:space="preserve">
<style type="text/css">
	.st0{fill:#FFFFFF;}
	.st1{fill:#8C45AB;}
	.st2{filter:url(#Adobe_OpacityMaskFilter);}
	.st3{fill:url(#SVGID_2_);}
	.st4{mask:url(#SVGID_1_);}
	.st5{fill:#613078;}
</style>
<g>
	<path class="st0" d="M59.52,110.18c27.91,0,50.54-22.63,50.54-50.54S87.43,9.1,59.52,9.1S8.98,31.73,8.98,59.64
		S31.61,110.18,59.52,110.18"/>
</g>
<g>
	<path class="st1" d="M87.4,47.05H62.57c-3.46,0-6.26-2.8-6.26-6.26V15.96c0-2.53,1.52-4.81,3.86-5.78
		c2.34-0.97,5.03-0.43,6.82,1.36l24.84,24.84c1.79,1.79,2.33,4.48,1.36,6.82C92.22,45.53,89.93,47.05,87.4,47.05z"/>
	<defs>
		<filter id="Adobe_OpacityMaskFilter" filterUnits="userSpaceOnUse" x="56.31" y="15.38" width="31.67" height="31.67">
			<feFlood  style="flood-color:white;flood-opacity:1" result="back"/>
			<feBlend  in="SourceGraphic" in2="back" mode="normal"/>
		</filter>
	</defs>
	<mask maskUnits="userSpaceOnUse" x="56.31" y="15.38" width="31.67" height="31.67" id="SVGID_1_">
		<g class="st2">
			
				<linearGradient id="SVGID_2_" gradientUnits="userSpaceOnUse" x1="0.2591" y1="121.7396" x2="1.2591" y2="121.7396" gradientTransform="matrix(-10.6643 10.6643 10.6643 10.6643 -1217.8087 -1259.66)">
				<stop  offset="0" style="stop-color:#FFFFFF"/>
				<stop  offset="1" style="stop-color:#000000"/>
			</linearGradient>
			<polygon class="st3" points="163.7,59.54 59.52,163.72 -44.66,59.54 59.52,-44.64 			"/>
		</g>
	</mask>
	<g class="st4">
		<g>
			<path class="st5" d="M87.98,47.05H62.57c-3.46,0-6.26-2.8-6.26-6.26V15.38L87.98,47.05z"/>
		</g>
	</g>
	<path class="st1" d="M81.15,55.3v25.02H37.89v-61.9h18.28l26.81,26.81c1.22,1.22,2.82,1.83,4.42,1.83s3.2-0.61,4.42-1.83
		c2.44-2.44,2.44-6.4,0-8.85L63.19,7.73c-1.17-1.17-2.76-1.83-4.42-1.83H31.64c-3.46,0-6.26,2.8-6.26,6.26v74.42
		c0,3.46,2.8,6.26,6.26,6.26H87.4c3.46,0,6.26-2.8,6.26-6.26V55.3H81.15z"/>
	<path class="st1" d="M65.96,57.18c-0.69,0.07-1.19,0.69-1.12,1.39c0.04,0.36,0.23,0.69,0.53,0.9l6.38,4.8l-6.34,4.96
		c-0.6,0.35-0.81,1.12-0.46,1.72c0.35,0.6,1.12,0.81,1.72,0.46c0.1-0.06,0.19-0.13,0.27-0.21l7.68-5.94
		c0.55-0.43,0.64-1.22,0.21-1.77c-0.07-0.09-0.15-0.17-0.25-0.24l-7.68-5.79c-0.23-0.19-0.53-0.28-0.83-0.28
		C66.04,57.17,66,57.17,65.96,57.18 M52.22,56.94c-0.2,0.05-0.39,0.14-0.55,0.28L43.99,63c-0.56,0.41-0.69,1.2-0.28,1.76
		c0.07,0.09,0.15,0.18,0.24,0.25l7.68,5.94c0.49,0.5,1.28,0.51,1.78,0.02c0.5-0.49,0.51-1.28,0.02-1.78
		c-0.08-0.08-0.17-0.15-0.27-0.21l-6.38-4.96l6.42-4.8c0.57-0.4,0.71-1.19,0.31-1.76c-0.26-0.38-0.72-0.58-1.17-0.53
		C52.3,56.94,52.26,56.94,52.22,56.94 M61.47,53.55c-0.5,0.08-0.9,0.45-1.02,0.95l-4.76,17.72c-0.19,0.67,0.19,1.37,0.86,1.57
		c0.67,0.19,1.37-0.19,1.57-0.86c0-0.01,0.01-0.02,0.01-0.03l4.76-17.72c0.21-0.67-0.17-1.37-0.83-1.58
		C61.87,53.53,61.67,53.52,61.47,53.55z"/>
</g>
</svg>
