<?xml version="1.0" encoding="utf-8"?>
<!-- Generator: Adobe Illustrator 24.1.0, SVG Export Plug-In . SVG Version: 6.00 Build 0)  -->
<svg version="1.1" id="Layer_1" xmlns="http://www.w3.org/2000/svg" xmlns:xlink="http://www.w3.org/1999/xlink" x="0px" y="0px"
	 viewBox="0 0 120 120" style="enable-background:new 0 0 120 120;" xml:space="preserve">
<style type="text/css">
	.st0{fill:#FFFFFF;}
	.st1{fill:#8C45AB;}
	.st2{filter:url(#Adobe_OpacityMaskFilter);}
	.st3{fill:url(#SVGID_2_);}
	.st4{mask:url(#SVGID_1_);}
	.st5{fill:#613078;}
	.st6{filter:url(#Adobe_OpacityMaskFilter_1_);}
	.st7{fill:url(#SVGID_4_);}
	.st8{mask:url(#SVGID_3_);}
</style>
<g>
	<path class="st0" d="M59.52,110.18c27.91,0,50.54-22.63,50.54-50.54S87.43,9.1,59.52,9.1S8.98,31.73,8.98,59.64
		S31.61,110.18,59.52,110.18"/>
</g>
<g>
	<rect x="40.73" y="50.89" class="st1" width="64.09" height="10.6"/>
	<defs>
		<filter id="Adobe_OpacityMaskFilter" filterUnits="userSpaceOnUse" x="40.24" y="50.89" width="61.35" height="10.6">
			<feFlood  style="flood-color:white;flood-opacity:1" result="back"/>
			<feBlend  in="SourceGraphic" in2="back" mode="normal"/>
		</filter>
	</defs>
	<mask maskUnits="userSpaceOnUse" x="40.24" y="50.89" width="61.35" height="10.6" id="SVGID_1_">
		<g class="st2">
			
				<linearGradient id="SVGID_2_" gradientUnits="userSpaceOnUse" x1="0.7683" y1="121.45" x2="1.7683" y2="121.45" gradientTransform="matrix(-21.0579 0 0 -21.0579 117.6962 2615.3074)">
				<stop  offset="0" style="stop-color:#FFFFFF"/>
				<stop  offset="1" style="stop-color:#000000"/>
			</linearGradient>
			<rect x="5.88" y="5.79" class="st3" width="106.38" height="104.06"/>
		</g>
	</mask>
	<g class="st4">
		<g>
			<rect x="40.24" y="50.89" class="st5" width="61.35" height="10.6"/>
		</g>
	</g>
	<path class="st1" d="M105.91,5.79H26.52c-3.5,0-6.35,2.85-6.35,6.35v13.62h-8.98c-2.93,0-5.3,2.37-5.3,5.3V84.1
		c0,2.93,2.37,5.3,5.3,5.3h29.43c2.93,0,5.3-2.37,5.3-5.3V31.06c0-2.93-2.37-5.3-5.3-5.3h-9.85v-9.37h70.9v48.09H77.61
		c-2.93,0-5.3,2.37-5.3,5.3v9.02H60.11v-9.02h-10.6V84.1c0,2.93,2.37,5.3,5.3,5.3h22.81c2.93,0,5.3-2.37,5.3-5.3v-9.02h22.99
		c3.5,0,6.35-2.85,6.35-6.35V12.15C112.26,8.64,109.41,5.79,105.91,5.79z M35.31,78.8H16.48v-4.16h18.83V78.8z M35.31,64.04H16.48
		V36.36h18.83V64.04z"/>
	<defs>
		<filter id="Adobe_OpacityMaskFilter_1_" filterUnits="userSpaceOnUse" x="17.91" y="64.04" width="17.49" height="10.6">
			<feFlood  style="flood-color:white;flood-opacity:1" result="back"/>
			<feBlend  in="SourceGraphic" in2="back" mode="normal"/>
		</filter>
	</defs>
	<mask maskUnits="userSpaceOnUse" x="17.91" y="64.04" width="17.49" height="10.6" id="SVGID_3_">
		<g class="st6">
			
				<linearGradient id="SVGID_4_" gradientUnits="userSpaceOnUse" x1="0.5634" y1="118.9817" x2="1.5634" y2="118.9817" gradientTransform="matrix(-11.1772 0 0 11.1772 41.8842 -1272.0612)">
				<stop  offset="0" style="stop-color:#FFFFFF"/>
				<stop  offset="1" style="stop-color:#000000"/>
			</linearGradient>
			<rect x="5.88" y="5.79" class="st7" width="106.38" height="104.06"/>
		</g>
	</mask>
	<g class="st8">
		<g>
			<rect x="17.91" y="64.04" class="st5" width="17.49" height="10.6"/>
		</g>
	</g>
</g>
</svg>
