<?xml version="1.0" encoding="utf-8"?>
<!-- Generator: Adobe Illustrator 24.1.0, SVG Export Plug-In . SVG Version: 6.00 Build 0)  -->
<svg version="1.1" id="Layer_1" xmlns="http://www.w3.org/2000/svg" xmlns:xlink="http://www.w3.org/1999/xlink" x="0px" y="0px"
	 viewBox="0 0 556.67 462.85" style="enable-background:new 0 0 556.67 462.85;" xml:space="preserve">
<style type="text/css">
	.st0{fill:url(#SVGID_1_);}
	.st1{clip-path:url(#SVGID_4_);}
	.st2{clip-path:url(#SVGID_5_);fill:#FFFFFF;}
	.st3{fill:none;}
	.st4{fill:#FFFFFF;}
	.st5{fill:#333333;}
	.st6{clip-path:url(#SVGID_9_);fill:#CCCCCC;}
	.st7{clip-path:url(#SVGID_9_);fill:#999999;}
	.st8{fill:#00C596;}
	.st9{fill:#8C45AB;}
</style>
<linearGradient id="SVGID_1_" gradientUnits="userSpaceOnUse" x1="175.6188" y1="376.8799" x2="351.811" y2="171.7606">
	<stop  offset="0" style="stop-color:#F2F2F2"/>
	<stop  offset="1" style="stop-color:#B2B2B2"/>
</linearGradient>
<path class="st0" d="M409.97,152.21v224.78c0,9.65-7.85,17.5-17.5,17.5H249.87c-9.65,0-17.5-7.85-17.5-17.5V100.39
	c0-9.65,7.85-17.5,17.5-17.5h89.79c-24.45-13.16-52.36-20.63-81.99-20.63c-82.66,0-151.92,58.04-170.24,136.06
	c19.79,4.43,34.61,21.96,34.61,42.85c0,20.49-14.18,37.92-33.83,42.66c19.21,75.41,86.22,131.34,166.36,132.76v0.08l133.24-0.08
	c22.55,1.1,41.94-15.79,44.52-38.05l0.21-143.83C431.77,204.77,423.66,176.68,409.97,152.21z"/>
<g>
	<defs>
		<path id="SVGID_2_" d="M436.46,189.96v0.02c0,0.01,1.89,0.02,4.22,0.02h33.92c2.33,0,5.59,1.29,7.29,2.88l28.05,26.25
			c1.7,1.59,3.08,0.99,3.08-1.33v-43.24v-33.29v-24.95h-0.05c-1.07-38.74-34.31-69.83-75.18-69.83c-41.55,0-75.23,32.13-75.23,71.76
			"/>
	</defs>
	<defs>
		<path id="SVGID_3_" d="M362.57,118.24"/>
	</defs>
	<clipPath id="SVGID_4_">
		<use xlink:href="#SVGID_2_"  style="overflow:visible;"/>
	</clipPath>
	<clipPath id="SVGID_5_" class="st1">
		<use xlink:href="#SVGID_3_"  style="overflow:visible;"/>
	</clipPath>
	<path class="st2" d="M254.58,416.68l0.08,0l136.84,0c20.01-0.77,36.61-15.18,40.37-35.08l0.58-3.05h0.22V234.72h-0.08l-0.16-3.58
		c-2.05-44.94-20.73-87.03-52.59-118.52c-32.85-32.47-76.23-50.35-122.15-50.35c-96.49,0-174.99,79.5-174.99,177.21
		c0,46.78,17.84,90.91,50.24,124.24c31.43,32.34,73.35,51.08,118.05,52.79L254.58,416.68z"/>
</g>
<g>
	<defs>
		<path id="SVGID_6_" d="M82.68,239.47c0,96.82,76.69,175.45,171.9,177.13v0.08h133.24v-0.08c0.7,0.03,1.39,0.08,2.1,0.08
			c21.88,0,39.9-16.66,42.42-38.13h0.33V234.72h-0.12c-2.49-95.67-79.8-172.45-174.87-172.45C161.03,62.26,82.68,141.6,82.68,239.47
			"/>
	</defs>
	<clipPath id="SVGID_7_">
		<use xlink:href="#SVGID_6_"  style="overflow:visible;"/>
	</clipPath>
</g>
<path class="st3" d="M114.55,241.18c0-17.3-12.27-31.81-28.67-35.52c-2.09,10.95-3.2,22.25-3.2,33.81c0,12.71,1.33,25.1,3.84,37.05
	C102.58,272.5,114.55,257.84,114.55,241.18z"/>
<g>
	<path class="st4" d="M249.87,90.39c-5.51,0-10,4.49-10,10v276.61c0,5.51,4.49,10,10,10h142.59c5.51,0,10-4.49,10-10V100.39
		c0-5.51-4.49-10-10-10H249.87z"/>
	<path class="st5" d="M249.98,90.39c-5.58,0-10.11,4.52-10.11,10.1v276.4c0,5.58,4.52,10.1,10.11,10.1h142.38
		c5.58,0,10.11-4.52,10.11-10.1v-276.4c0-5.58-4.53-10.1-10.11-10.1H249.98z"/>
	<path class="st4" d="M389.84,335.82V104.49h-35.89v2.45c0,5.42-4.39,9.81-9.81,9.81h-46.38c-5.42,0-9.81-4.39-9.81-9.81v-2.45
		h-35.89v231.33H389.84z"/>
</g>
<g>
	<defs>
		<path id="SVGID_8_" d="M353.95,104.49v2.45c0,5.42-4.39,9.81-9.81,9.81h-46.38c-5.42,0-9.81-4.39-9.81-9.81v-2.45h-35.89v231.33
			h137.78V104.49H353.95z"/>
	</defs>
	<clipPath id="SVGID_9_">
		<use xlink:href="#SVGID_8_"  style="overflow:visible;"/>
	</clipPath>
	<rect x="245.72" y="144.8" class="st6" width="131.9" height="173.53"/>
	<rect x="245.72" y="144.8" class="st7" width="131.9" height="19.05"/>
</g>
<g>
	<path class="st4" d="M310.54,371.26c5.75,5.75,15.06,5.75,20.81,0s5.75-15.06,0-20.81s-15.06-5.75-20.81,0
		C304.79,356.2,304.79,365.52,310.54,371.26"/>
	<path class="st4" d="M321.17,266.59c12.86,0,23.29-10.43,23.29-23.29c0-12.86-10.43-23.29-23.29-23.29
		c-12.86,0-23.29,10.43-23.29,23.29C297.88,256.17,308.31,266.59,321.17,266.59"/>
	<path class="st4" d="M354.21,320.61v-20.42c0-13.76-14.8-24.91-33.05-24.91s-33.04,11.15-33.04,24.91v20.42H354.21z"/>
	<path class="st8" d="M43.72,290.95c-1.67,1.62-3.03,1.05-3.03-1.28v-19.89v-16.91V240.2h0.02c0.53-19.68,16.84-35.47,36.9-35.47
		c20.39,0,36.93,16.32,36.93,36.45c0,19.91-16.18,36.09-36.27,36.43v0.01c0,0.01-1.89,0.01-4.22,0.01H61.7
		c-2.33,0-5.57,1.31-7.25,2.93L43.72,290.95z"/>
	<path class="st4" d="M147.41,251.04c5.38,0,9.73-4.36,9.73-9.73c0-5.38-4.36-9.73-9.73-9.73c-5.38,0-9.73,4.36-9.73,9.73
		C137.68,246.68,142.03,251.04,147.41,251.04"/>
	<path class="st4" d="M176.19,251.04c5.38,0,9.73-4.36,9.73-9.73c0-5.38-4.36-9.73-9.73-9.73c-5.38,0-9.73,4.36-9.73,9.73
		C166.46,246.68,170.81,251.04,176.19,251.04"/>
	<path class="st4" d="M204.97,251.04c5.38,0,9.73-4.36,9.73-9.73c0-5.38-4.36-9.73-9.73-9.73c-5.38,0-9.73,4.36-9.73,9.73
		C195.24,246.68,199.6,251.04,204.97,251.04"/>
</g>
<path class="st9" d="M512.97,116.31c-1.07-38.74-34.31-69.83-75.18-69.83c-28.07,0-52.53,14.67-65.46,36.41h20.13
	c9.65,0,17.5,7.85,17.5,17.5v37.33c10.49,16.05,18.41,33.62,23.49,52.13c1,0.05,2,0.1,3.01,0.12v0.02c0,0.01,1.89,0.02,4.22,0.02
	h33.92c2.33,0,5.6,1.29,7.3,2.88l28.05,26.25c1.7,1.59,3.08,0.99,3.08-1.33v-43.23v-33.29v-24.95H512.97z"/>
</svg>
