<svg xmlns="http://www.w3.org/2000/svg" width="108" height="21" xmlns:xlink="http://www.w3.org/1999/xlink" viewBox="0 0 108 21"><defs><path id="a" d="M151.6 30.55a3.89 3.89 0 0 1 7.77-.39 3.9 3.9 0 0 1-7.76.79l-.01-.4zm3.88 10.42a10.49 10.49 0 1 0 0-20.97 10.49 10.49 0 0 0 0 20.97z"/><path id="b" d="M178.43 30.43c0 3.19-2.21 4.58-4.3 4.58-2.33 0-4.13-1.7-4.13-4.43 0-2.89 1.89-4.58 4.28-4.58 2.47 0 4.15 1.8 4.15 4.43zm-4.23 3.41c1.5 0 2.62-1.41 2.62-3.35 0-1.46-.73-3.32-2.58-3.32-1.86 0-2.65 1.71-2.65 3.35 0 1.89 1.08 3.32 2.61 3.32z"/><path id="c" d="M188.27 32.27c0 .89.02 1.68.07 2.35h-1.39l-.08-1.4h-.04a3.25 3.25 0 0 1-2.85 1.6c-1.36 0-2.98-.75-2.98-3.77V26h1.57v4.77c0 1.64.5 2.75 1.92 2.75 1.05 0 1.78-.73 2.07-1.43.1-.26.14-.53.14-.8V26h1.57z"/><path id="d" d="M196.39 33.21c.47.3 1.29.63 2.07.63 1.14 0 1.68-.57 1.68-1.29 0-.75-.45-1.15-1.61-1.58-1.55-.55-2.28-1.41-2.28-2.44 0-1.39 1.12-2.53 2.98-2.53.87 0 1.64.25 2.12.54l-.39 1.13a3.39 3.39 0 0 0-1.77-.5c-.93 0-1.44.54-1.44 1.18 0 .71.51 1.03 1.64 1.46 1.49.57 2.26 1.32 2.26 2.6 0 1.52-1.18 2.6-3.23 2.6a5 5 0 0 1-2.42-.6z"/><path id="e" d="M211.39 33.22c.47.3 1.29.62 2.07.62 1.14 0 1.68-.57 1.68-1.28 0-.75-.45-1.16-1.61-1.59-1.55-.55-2.28-1.41-2.28-2.44 0-1.39 1.12-2.53 2.98-2.53.87 0 1.64.25 2.12.54l-.39 1.14a3.34 3.34 0 0 0-1.77-.5c-.93 0-1.44.53-1.44 1.17 0 .71.51 1.04 1.64 1.46 1.49.57 2.26 1.32 2.26 2.61 0 1.51-1.18 2.6-3.23 2.6-.94 0-1.81-.25-2.42-.61z"/><path id="f" d="M233.07 28.53c0-.89-.02-1.62-.07-2.33h1.37l.07 1.39h.05A2.97 2.97 0 0 1 237.2 26c1.18 0 2.07.71 2.44 1.73h.04c.24-.44.57-.82.96-1.12a2.97 2.97 0 0 1 1.91-.61c1.14 0 2.83.75 2.83 3.74v5.08h-1.53v-4.88c0-1.66-.6-2.66-1.87-2.66-.89 0-1.58.66-1.85 1.43-.08.25-.12.52-.13.79v5.32h-1.53v-5.17c0-1.37-.61-2.37-1.8-2.37-.98 0-1.69.79-1.94 1.57-.08.25-.13.51-.12.77v5.2h-1.54z"/><path id="g" d="M247.39 33.22c.47.3 1.29.62 2.07.62 1.14 0 1.68-.57 1.68-1.28 0-.75-.45-1.16-1.61-1.59-1.55-.55-2.28-1.41-2.28-2.44 0-1.39 1.12-2.53 2.98-2.53.87 0 1.64.25 2.12.54l-.39 1.14a3.34 3.34 0 0 0-1.77-.5c-.93 0-1.44.53-1.44 1.17 0 .71.51 1.04 1.64 1.46 1.49.57 2.26 1.32 2.26 2.61 0 1.51-1.18 2.6-3.23 2.6-.94 0-1.81-.25-2.42-.61z"/><path id="h" d="M208.45 26l-1.71 5.06c-.22.62-.39 1.34-.55 1.79h-.04c-.14-.45-.36-1.19-.55-1.76L203.71 26H202l3.19 7.96c.07.2.11.33.11.42 0 .09-.06.22-.13.38a4.7 4.7 0 0 1-1.32 1.75c-.4.34-.87.6-1.37.76l.43 1.32c.4-.08 1.15-.35 1.89-1.01 1.07-.93 1.84-2.46 2.96-5.42l2.35-6.16z"/><path id="i" d="M225.5 30.8v.06c.02.32.16 1.83 1.32 2.54.27.15.55.26.85.32a5.4 5.4 0 0 0 3.03-.5l.39 1.19c-.89.42-1.86.63-2.84.63-2.66 0-4.25-1.77-4.25-4.38 0-2.6 1.54-4.66 4.06-4.66 2.82 0 3.57 2.48 3.57 4.07 0 .25-.02.49-.06.73zm2.43-3.67c-1.59 0-2.28 1.55-2.41 2.55h4.59c.02-1-.41-2.55-2.18-2.55z"/><path id="j" d="M194.52 33.09s-.54.4-.97.39c-.55-.01-.91-.38-.91-1.44v-4.86h2.23v-1.12h-2.23V23L191 24.17v7.78c0 1.02.2 1.79.65 2.25.22.25.54.45.9.56 1.31.45 2.35-.47 2.35-.47z"/><path id="k" d="M222.52 33.09s-.54.4-.97.39c-.55-.01-.91-.38-.91-1.44v-4.86h2.23v-1.12h-2.23V23L219 24.17v7.78c0 1.02.2 1.79.65 2.25.22.25.54.45.9.56 1.31.45 2.35-.47 2.35-.47z"/></defs><g transform="translate(-145 -20)"><use fill="#ff2400" xlink:href="#a"/><use fill="#333" xlink:href="#b"/><use fill="#333" xlink:href="#c"/><use fill="#333" xlink:href="#d"/><use fill="#333" xlink:href="#e"/><use fill="#333" xlink:href="#f"/><use fill="#333" xlink:href="#g"/><use fill="#333" xlink:href="#h"/><use fill="#333" xlink:href="#i"/><use fill="#333" xlink:href="#j"/><use fill="#333" xlink:href="#k"/></g></svg>
