<?xml version="1.0" encoding="utf-8"?>
<!-- Generator: Adobe Illustrator 24.1.0, SVG Export Plug-In . SVG Version: 6.00 Build 0)  -->
<svg version="1.1" id="Layer_1" xmlns="http://www.w3.org/2000/svg" xmlns:xlink="http://www.w3.org/1999/xlink" x="0px" y="0px"
	 viewBox="0 0 530.74 387.08" style="enable-background:new 0 0 530.74 387.08;" xml:space="preserve">
<style type="text/css">
	.st0{fill:#00C596;}
	.st1{fill:#333333;}
	.st2{fill:#FFFFFF;}
	.st3{fill:#8C45AB;}
	.st4{fill:#E0E0E0;}
	.st5{fill:#999999;}
	.st6{fill:url(#SVGID_3_);}
	.st7{fill:url(#SVGID_4_);}
</style>
<g>
	<g>
		<path class="st0" d="M109.73,129.26v98.7c16.54-2.02,32.55-9.36,45.24-22.05c22.73-22.73,28.34-56.08,16.86-84.06h-54.68
			C113.06,121.84,109.73,125.17,109.73,129.26z"/>
		<path class="st0" d="M102.23,228.5v-99.25c0-8.22,6.69-14.91,14.91-14.91h51.11c-3.47-6.38-7.88-12.38-13.28-17.78
			c-30.19-30.19-79.15-30.19-109.34,0c-30.19,30.19-30.19,79.15,0,109.34C61.22,221.49,81.81,229.01,102.23,228.5z"/>
	</g>
	<path class="st1" d="M117.15,121.84c-4.09,0-7.41,3.32-7.41,7.41v199.79h314.79V129.26c0-4.1-3.32-7.41-7.41-7.41H117.15z"/>
</g>
<rect x="124.41" y="138.52" class="st2" width="285.29" height="174.22"/>
<g>
	<defs>
		<path id="SVGID_1_" d="M78.8,328.66v12.2c0,5.96,4.83,10.8,10.8,10.8h348.51c5.96,0,10.8-4.83,10.8-10.8v-12.2H78.8z"/>
	</defs>
	<clipPath id="SVGID_2_">
		<use xlink:href="#SVGID_1_"  style="overflow:visible;"/>
	</clipPath>
</g>
<path class="st3" d="M496.03,211.14c-12.06-12.06-31.68-12.06-43.74,0c-12.06,12.06-12.06,31.68,0,43.74
	c12.06,12.06,31.68,12.06,43.74,0c5.83-5.83,9.04-13.6,9.04-21.87S501.86,216.97,496.03,211.14z"/>
<g>
	<path class="st3" d="M156.52,156.38v17.71h-3.36l-8.83-10.75v10.75h-4.05v-17.71h3.39l8.8,10.75v-10.75H156.52z"/>
	<path class="st3" d="M173.7,168.4h-10.3c0.38,1.7,1.82,2.73,3.9,2.73c1.44,0,2.48-0.43,3.42-1.32l2.1,2.28
		c-1.27,1.44-3.16,2.2-5.62,2.2c-4.71,0-7.77-2.96-7.77-7.01c0-4.07,3.11-7.01,7.26-7.01c4,0,7.08,2.68,7.08,7.06
		C173.78,167.64,173.73,168.07,173.7,168.4z M163.35,166.09h6.7c-0.28-1.72-1.57-2.83-3.34-2.83
		C164.92,163.26,163.63,164.35,163.35,166.09z"/>
	<path class="st3" d="M198.01,160.48l-4.93,13.61h-3.79l-3.06-8.45l-3.16,8.45h-3.79l-4.91-13.61h3.72l3.21,9.21l3.34-9.21h3.34
		l3.24,9.21l3.31-9.21H198.01z"/>
	<path class="st3" d="M222.66,162.81c0,3.95-2.96,6.4-7.69,6.4h-3.57v4.88h-4.1v-17.71h7.67
		C219.7,156.38,222.66,158.83,222.66,162.81z M218.51,162.81c0-1.95-1.26-3.09-3.77-3.09h-3.34v6.15h3.34
		C217.24,165.87,218.51,164.73,218.51,162.81z"/>
	<path class="st3" d="M233.76,160.27v3.64c-0.33-0.02-0.58-0.05-0.89-0.05c-2.18,0-3.62,1.19-3.62,3.79v6.43h-3.95v-13.61h3.77v1.8
		C230.04,160.96,231.66,160.27,233.76,160.27z"/>
	<path class="st3" d="M234.98,167.28c0-4.1,3.16-7.01,7.49-7.01c4.33,0,7.46,2.91,7.46,7.01c0,4.1-3.14,7.01-7.46,7.01
		C238.14,174.29,234.98,171.38,234.98,167.28z M245.93,167.28c0-2.35-1.49-3.77-3.47-3.77c-1.97,0-3.49,1.42-3.49,3.77
		c0,2.35,1.52,3.77,3.49,3.77C244.44,171.05,245.93,169.64,245.93,167.28z"/>
	<path class="st3" d="M248.39,178.44l1.06-2.86c0.43,0.3,1.01,0.48,1.67,0.48c0.99,0,1.62-0.63,1.62-1.97v-13.61h3.95v13.59
		c0,3.14-1.85,5.14-5.14,5.14C250.33,179.2,249.15,178.97,248.39,178.44z M252.26,156.38c0-1.24,0.99-2.2,2.45-2.2
		c1.47,0,2.45,0.91,2.45,2.12c0,1.32-0.99,2.28-2.45,2.28C253.24,158.58,252.26,157.62,252.26,156.38z"/>
	<path class="st3" d="M273.58,168.4h-10.3c0.38,1.7,1.82,2.73,3.9,2.73c1.44,0,2.48-0.43,3.42-1.32l2.1,2.28
		c-1.26,1.44-3.16,2.2-5.62,2.2c-4.71,0-7.77-2.96-7.77-7.01c0-4.07,3.11-7.01,7.26-7.01c4,0,7.08,2.68,7.08,7.06
		C273.66,167.64,273.61,168.07,273.58,168.4z M263.24,166.09h6.7c-0.28-1.72-1.57-2.83-3.34-2.83
		C264.81,163.26,263.52,164.35,263.24,166.09z"/>
	<path class="st3" d="M275.28,167.28c0-4.1,3.16-7.01,7.59-7.01c2.86,0,5.11,1.24,6.1,3.47l-3.06,1.64
		c-0.73-1.29-1.82-1.87-3.06-1.87c-2,0-3.57,1.39-3.57,3.77c0,2.38,1.57,3.77,3.57,3.77c1.24,0,2.33-0.56,3.06-1.87l3.06,1.67
		c-0.99,2.18-3.24,3.44-6.1,3.44C278.44,174.29,275.28,171.38,275.28,167.28z"/>
	<path class="st3" d="M300.23,173.43c-0.81,0.58-2,0.86-3.21,0.86c-3.21,0-5.09-1.64-5.09-4.88v-5.59h-2.1v-3.04h2.1v-3.31h3.95
		v3.31h3.39v3.04h-3.39v5.54c0,1.16,0.63,1.8,1.7,1.8c0.58,0,1.16-0.18,1.59-0.51L300.23,173.43z"/>
</g>
<rect x="138.18" y="187.76" class="st4" width="256.4" height="109.63"/>
<rect x="217.48" y="192.5" class="st2" width="171.48" height="78.19"/>
<rect x="150.01" y="201.82" class="st5" width="40.76" height="5.62"/>
<rect x="150.01" y="213.77" class="st5" width="40.76" height="5.62"/>
<rect x="150.01" y="225.71" class="st5" width="40.76" height="5.62"/>
<rect x="150.01" y="237.66" class="st5" width="40.76" height="5.62"/>
<rect x="223.09" y="198.83" class="st3" width="126.5" height="12.43"/>
<rect x="243.47" y="202.32" class="st2" width="56.93" height="5.62"/>
<rect x="243.47" y="217.26" class="st3" width="56.93" height="5.62"/>
<rect x="150.01" y="276.31" class="st2" width="150.39" height="5.62"/>
<rect x="150.01" y="285.55" class="st2" width="150.39" height="5.62"/>
<g>
	<path class="st2" d="M384.45,284.19c0-3.14-2.55-5.69-5.7-5.69h-32.1c-3.15,0-5.7,2.55-5.7,5.69s2.55,5.69,5.7,5.69h32.1
		C381.9,289.88,384.45,287.34,384.45,284.19"/>
</g>
<linearGradient id="SVGID_3_" gradientUnits="userSpaceOnUse" x1="279.6848" y1="330.583" x2="403.8335" y2="271.169">
	<stop  offset="0" style="stop-color:#CCCCCC"/>
	<stop  offset="1" style="stop-color:#999999"/>
</linearGradient>
<path class="st6" d="M109.73,328.66H78.8v12.19c0,5.95,4.84,10.8,10.8,10.8h348.51c5.95,0,10.8-4.84,10.8-10.8v-12.19h-24.39"/>
<linearGradient id="SVGID_4_" gradientUnits="userSpaceOnUse" x1="357.6511" y1="104.2166" x2="505.0738" y2="104.2166">
	<stop  offset="0" style="stop-color:#8C45AB"/>
	<stop  offset="1" style="stop-color:#613078"/>
</linearGradient>
<path class="st7" d="M504.55,178.8l-90.58-151.3c-0.33-0.56-1.06-1.5-2.17-1.5s-1.83,0.94-2.17,1.5l-51.98,86.83h59.46
	c8.22,0,14.91,6.69,14.91,14.91v53.17h70.47c0.65,0,1.83-0.14,2.35-1.06C505.37,180.44,504.88,179.36,504.55,178.8z"/>
</svg>
