<?xml version="1.0" encoding="utf-8"?>
<!-- Generator: Adobe Illustrator 24.1.0, SVG Export Plug-In . SVG Version: 6.00 Build 0)  -->
<svg version="1.1" id="Layer_1" xmlns="http://www.w3.org/2000/svg" xmlns:xlink="http://www.w3.org/1999/xlink" x="0px" y="0px"
	 viewBox="0 0 60 60" style="enable-background:new 0 0 60 60;" xml:space="preserve">
<style type="text/css">
	.st0{fill:#8C45AB;}
</style>
<g>
	<path class="st0" d="M30,58.52C14.27,58.52,1.48,45.73,1.48,30S14.27,1.48,30,1.48S58.52,14.27,58.52,30S45.72,58.52,30,58.52z
		 M30,3.59C15.44,3.59,3.59,15.44,3.59,30S15.44,56.41,30,56.41S56.41,44.56,56.41,30S44.56,3.59,30,3.59z"/>
	<path class="st0" d="M33.51,22.34c0-1.21-0.98-2.19-2.19-2.19H30c-1.94,0-3.51,1.57-3.51,3.51s1.57,3.51,3.51,3.51h1.76
		c0.48,0,0.88-0.39,0.88-0.88s-0.39-0.88-0.88-0.88H30c-0.97,0-1.75-0.79-1.75-1.76s0.79-1.76,1.75-1.76h1.32
		c0.24,0,0.44,0.2,0.44,0.44s-0.2,0.44-0.44,0.44H30c-0.49,0-0.88,0.39-0.88,0.88s0.39,0.88,0.88,0.88h1.32
		C32.53,24.53,33.51,23.55,33.51,22.34 M39.65,18.39v8.83l-7.52,4.62c-1.33-0.74-2.94-0.74-4.27,0l-7.52-4.62v-8.83
		c0-0.48,0.39-0.88,0.88-0.88h17.55C39.26,17.51,39.65,17.9,39.65,18.39 M31.38,33.43c-0.84-0.52-1.91-0.52-2.76,0l-10.91,6.71v1.06
		c0,0.49,0.39,0.88,0.88,0.88h22.82c0.49,0,0.88-0.39,0.88-0.88v-1.06L31.38,33.43z M42.29,27.66l-8.47,5.21l8.47,5.21V27.66z
		 M26.18,32.87l-8.47,5.21V27.66L26.18,32.87z"/>
</g>
</svg>
